<?xml version="1.0" encoding="utf-8"?>
<svg version="1.1" xmlns:xlink="http://www.w3.org/1999/xlink" width="12px" height="12px" viewBox="1843 627  12 12" xmlns="http://www.w3.org/2000/svg">
  <path d="M 1849 627  C 1852.36 627  1855 629.64  1855 633  C 1855 636.36  1852.36 639  1849 639  C 1845.64 639  1843 636.36  1843 633  C 1843 629.64  1845.64 627  1849 627  Z " fill-rule="nonzero" fill="#f0f0f0" stroke="none" />
  <path d="M 1849 627.5  C 1852.08 627.5  1854.5 629.92  1854.5 633  C 1854.5 636.08  1852.08 638.5  1849 638.5  C 1845.92 638.5  1843.5 636.08  1843.5 633  C 1843.5 629.92  1845.92 627.5  1849 627.5  Z " stroke-width="1" stroke="#797979" fill="none" />
  <path d="M 1849 636  C 1847.32 636  1846 634.68  1846 633  C 1846 631.32  1847.32 630  1849 630  C 1850.68 630  1852 631.32  1852 633  C 1852 634.68  1850.68 636  1849 636  " fill-rule="nonzero" fill="#797979" stroke="none" />
</svg>