<?xml version="1.0" encoding="utf-8"?>
<svg version="1.1" xmlns:xlink="http://www.w3.org/1999/xlink" width="12px" height="12px" viewBox="1843 685  12 12" xmlns="http://www.w3.org/2000/svg">
  <path d="M 1849 685  C 1852.36 685  1855 687.64  1855 691  C 1855 694.36  1852.36 697  1849 697  C 1845.64 697  1843 694.36  1843 691  C 1843 687.64  1845.64 685  1849 685  Z " fill-rule="nonzero" fill="#f0f0f0" stroke="none" />
  <path d="M 1849 685.5  C 1852.08 685.5  1854.5 687.92  1854.5 691  C 1854.5 694.08  1852.08 696.5  1849 696.5  C 1845.92 696.5  1843.5 694.08  1843.5 691  C 1843.5 687.92  1845.92 685.5  1849 685.5  Z " stroke-width="1" stroke="#797979" fill="none" />
  <path d="M 1849 694  C 1847.32 694  1846 692.68  1846 691  C 1846 689.32  1847.32 688  1849 688  C 1850.68 688  1852 689.32  1852 691  C 1852 692.68  1850.68 694  1849 694  " fill-rule="nonzero" fill="#797979" stroke="none" />
</svg>