<?xml version="1.0" encoding="utf-8"?>
<svg version="1.1" xmlns:xlink="http://www.w3.org/1999/xlink" width="12px" height="12px" viewBox="1843 656  12 12" xmlns="http://www.w3.org/2000/svg">
  <path d="M 1849 656  C 1852.36 656  1855 658.64  1855 662  C 1855 665.36  1852.36 668  1849 668  C 1845.64 668  1843 665.36  1843 662  C 1843 658.64  1845.64 656  1849 656  Z " fill-rule="nonzero" fill="#f0f0f0" stroke="none" />
  <path d="M 1849 656.5  C 1852.08 656.5  1854.5 658.92  1854.5 662  C 1854.5 665.08  1852.08 667.5  1849 667.5  C 1845.92 667.5  1843.5 665.08  1843.5 662  C 1843.5 658.92  1845.92 656.5  1849 656.5  Z " stroke-width="1" stroke="#797979" fill="none" />
  <path d="M 1849 665  C 1847.32 665  1846 663.68  1846 662  C 1846 660.32  1847.32 659  1849 659  C 1850.68 659  1852 660.32  1852 662  C 1852 663.68  1850.68 665  1849 665  " fill-rule="nonzero" fill="#797979" stroke="none" />
</svg>