<?xml version="1.0" encoding="utf-8"?>
<svg version="1.1" xmlns:xlink="http://www.w3.org/1999/xlink" width="50px" height="50px" xmlns="http://www.w3.org/2000/svg">
  <g transform="matrix(1 0 0 1 -272 -587 )">
    <path d="M 297 587  C 311 587  322 598  322 612  C 322 626  311 637  297 637  C 283 637  272 626  272 612  C 272 598  283 587  297 587  Z " fill-rule="nonzero" fill="#ffffff" stroke="none" />
    <path d="M 297 587.5  C 310.72 587.5  321.5 598.28  321.5 612  C 321.5 625.72  310.72 636.5  297 636.5  C 283.28 636.5  272.5 625.72  272.5 612  C 272.5 598.28  283.28 587.5  297 587.5  Z " stroke-width="1" stroke="#797979" fill="none" />
  </g>
</svg>