<?xml version="1.0" encoding="utf-8"?>
<svg version="1.1" xmlns:xlink="http://www.w3.org/1999/xlink" width="60px" height="60px" xmlns="http://www.w3.org/2000/svg">
  <g transform="matrix(1 0 0 1 -250 -531 )">
    <path d="M 280 531  C 296.8 531  310 544.2  310 561  C 310 577.8  296.8 591  280 591  C 263.2 591  250 577.8  250 561  C 250 544.2  263.2 531  280 531  Z " fill-rule="nonzero" fill="#ffffff" stroke="none" />
    <path d="M 280 531.5  C 296.52 531.5  309.5 544.48  309.5 561  C 309.5 577.52  296.52 590.5  280 590.5  C 263.48 590.5  250.5 577.52  250.5 561  C 250.5 544.48  263.48 531.5  280 531.5  Z " stroke-width="1" stroke="#797979" fill="none" />
  </g>
</svg>