<?xml version="1.0" encoding="utf-8"?>
<svg version="1.1" xmlns:xlink="http://www.w3.org/1999/xlink" width="32px" height="29px" xmlns="http://www.w3.org/2000/svg">
  <g transform="matrix(1 0 0 1 -264 -547 )">
    <path d="M 16.7857142857143 28.66015625  C 16.5714285714286 28.88671875  16.3095238095238 29  16 29  C 15.6904761904762 29  15.4285714285714 28.88671875  15.2142857142857 28.66015625  L 4.07142857142857 17.2942708333333  C 3.95238095238095 17.1935763888889  3.78869047619048 17.0299479166667  3.58035714285714 16.8033854166667  C 3.37202380952381 16.5768229166667  3.04166666666667 16.1646050347222  2.58928571428571 15.5667317708333  C 2.13690476190476 14.9688585069444  1.73214285714286 14.3552517361111  1.375 13.7259114583333  C 1.01785714285714 13.0965711805556  0.699404761904762 12.3350694444444  0.419642857142857 11.44140625  C 0.139880952380952 10.5477430555556  0 9.67925347222222  0 8.8359375  C 0 6.06684027777778  0.755952380952381 3.90190972222222  2.26785714285714 2.34114583333333  C 3.77976190476191 0.780381944444444  5.86904761904762 0  8.53571428571429 0  C 9.27380952380952 0  10.0267857142857 0.13530815972222  10.7946428571429 0.405924479166668  C 11.5625 0.676540798611109  12.2767857142857 1.04155815972222  12.9375 1.5009765625  C 13.5982142857143 1.96039496527778  14.1666666666667 2.39149305555555  14.6428571428571 2.79427083333333  C 15.1190476190476 3.19704861111111  15.5714285714286 3.625  16 4.078125  C 16.4285714285714 3.625  16.8809523809524 3.19704861111111  17.3571428571429 2.79427083333333  C 17.8333333333333 2.39149305555555  18.4017857142857 1.96039496527778  19.0625 1.5009765625  C 19.7232142857143 1.04155815972222  20.4375 0.676540798611109  21.2053571428571 0.405924479166668  C 21.9732142857143 0.13530815972222  22.7261904761905 0  23.4642857142857 0  C 26.1309523809524 0  28.2202380952381 0.780381944444444  29.7321428571429 2.34114583333333  C 31.2440476190476 3.90190972222222  32 6.06684027777778  32 8.8359375  C 32 11.6176215277778  30.6369047619048 14.4496527777778  27.9107142857143 17.33203125  L 16.7857142857143 28.66015625  Z " fill-rule="nonzero" fill="#000000" stroke="none" transform="matrix(1 0 0 1 264 547 )" />
  </g>
</svg>