<?xml version="1.0" encoding="utf-8"?>
<svg version="1.1" xmlns:xlink="http://www.w3.org/1999/xlink" width="28px" height="17px" xmlns="http://www.w3.org/2000/svg">
  <g transform="matrix(1 0 0 1 -404 -170 )">
    <path d="M 27.6536458333333 13.85234375  C 27.8845486111111 14.0205729166667  28 14.2197916666667  28 14.45  L 28 16.15  C 28 16.3802083333333  27.8845486111111 16.5794270833333  27.6536458333333 16.74765625  C 27.4227430555556 16.9158854166667  27.1493055555556 17  26.8333333333333 17  L 1.16666666666667 17  C 0.850694444444445 17  0.577256944444444 16.9158854166667  0.346354166666667 16.74765625  C 0.115451388888889 16.5794270833333  0 16.3802083333333  0 16.15  L 0 14.45  C 0 14.2197916666667  0.115451388888889 14.0205729166667  0.346354166666667 13.85234375  C 0.577256944444444 13.6841145833333  0.850694444444445 13.6  1.16666666666667 13.6  L 26.8333333333333 13.6  C 27.1493055555556 13.6  27.4227430555556 13.6841145833333  27.6536458333333 13.85234375  Z M 27.6536458333333 7.05234375  C 27.8845486111111 7.22057291666667  28 7.41979166666667  28 7.65  L 28 9.35  C 28 9.58020833333333  27.8845486111111 9.77942708333333  27.6536458333333 9.94765625  C 27.4227430555556 10.1158854166667  27.1493055555556 10.2  26.8333333333333 10  L 1.16666666666667 10  C 0.850694444444445 10.2  0.577256944444444 10.1158854166667  0.346354166666667 9.94765625  C 0.115451388888889 9.77942708333333  0 9.58020833333333  0 9.35  L 0 7.65  C 0 7.41979166666667  0.115451388888889 7.22057291666667  0.346354166666667 7.05234375  C 0.577256944444444 6.88411458333333  0.850694444444445 6.8  1.16666666666667 7  L 26.8333333333333 7  C 27.1493055555556 6.8  27.4227430555556 6.88411458333333  27.6536458333333 7.05234375  Z M 27.6536458333333 0.252343750000001  C 27.8845486111111 0.420572916666665  28 0.619791666666665  28 0.850000000000001  L 28 2.55  C 28 2.78020833333333  27.8845486111111 2.97942708333333  27.6536458333333 3.14765625  C 27.4227430555556 3.31588541666666  27.1493055555556 3.4  26.8333333333333 3.4  L 1.16666666666667 3.4  C 0.850694444444445 3.4  0.577256944444444 3.31588541666666  0.346354166666667 3.14765625  C 0.115451388888889 2.97942708333333  0 2.78020833333333  0 2.55  L 0 0.850000000000001  C 0 0.619791666666665  0.115451388888889 0.420572916666665  0.346354166666667 0.252343750000001  C 0.577256944444444 0.0841145833333323  0.850694444444445 0  1.16666666666667 0  L 26.8333333333333 0  C 27.1493055555556 0  27.4227430555556 0.0841145833333323  27.6536458333333 0.252343750000001  Z " fill-rule="nonzero" fill="#000000" stroke="none" transform="matrix(1 0 0 1 404 170 )" />
  </g>
</svg>