<?xml version="1.0" encoding="utf-8"?>
<svg version="1.1" xmlns:xlink="http://www.w3.org/1999/xlink" width="41px" height="25px" xmlns="http://www.w3.org/2000/svg">
  <g transform="matrix(1 0 0 1 -1611 -648 )">
    <path d="M 40.5891783567134 20.446735395189  C 40.8630594522378 20.7331042382589  41 21.0624284077892  41 21.4347079037801  C 41 21.8069873997709  40.8630594522378 22.1363115693013  40.5891783567134 22.4226804123711  L 38.5350701402806 24.5704467353952  C 38.2611890447562 24.8568155784651  37.9462257849031 25  37.5901803607214 25  C 37.2341349365397 25  36.9191716766867 24.8568155784651  36.6452905811623 24.5704467353952  L 20.5 7.68900343642612  L 4.35470941883768 24.5704467353952  C 4.08082832331329 24.8568155784651  3.76586506346025 25  3.40981963927856 25  C 3.05377421509686 25  2.73881095524382 24.8568155784651  2.46492985971944 24.5704467353952  L 0.410821643286573 22.4226804123711  C 0.136940547762191 22.1363115693013  0 21.8069873997709  0 21.4347079037801  C 0 21.0624284077892  0.136940547762191 20.7331042382589  0.410821643286573 20.446735395189  L 19.5551102204409 0.429553264604812  C 19.8289913159653 0.143184421534934  20.1439545758183 0  20.5 0  C 20.8560454241817 0  21.1710086840347 0.143184421534934  21.4448897795591 0.429553264604812  L 40.5891783567134 20.446735395189  Z " fill-rule="nonzero" fill="#000000" stroke="none" transform="matrix(1 0 0 1 1611 648 )" />
  </g>
</svg>