<?xml version="1.0" encoding="utf-8"?>
<svg version="1.1" xmlns:xlink="http://www.w3.org/1999/xlink" width="90px" height="90px" xmlns="http://www.w3.org/2000/svg">
  <g transform="matrix(1 0 0 1 -150 -261 )">
    <path d="M 195 261  C 220.2 261  240 280.8  240 306  C 240 331.2  220.2 351  195 351  C 169.8 351  150 331.2  150 306  C 150 280.8  169.8 261  195 261  Z " fill-rule="nonzero" fill="#ffffff" stroke="none" />
    <path d="M 195 261.5  C 219.92 261.5  239.5 281.08  239.5 306  C 239.5 330.92  219.92 350.5  195 350.5  C 170.08 350.5  150.5 330.92  150.5 306  C 150.5 281.08  170.08 261.5  195 261.5  Z " stroke-width="1" stroke="#797979" fill="none" />
  </g>
</svg>