<?xml version="1.0" encoding="utf-8"?>
<svg version="1.1" xmlns:xlink="http://www.w3.org/1999/xlink" width="72px" height="88px" xmlns="http://www.w3.org/2000/svg">
  <g transform="matrix(1 0 0 1 -915 -314 )">
    <path d="M 70.5 6.28571428571428  L 66 6.28571428571428  C 66 14.8303571428571  64.3359375 22.3846726190476  61.0078125 28.9486607142857  C 57.6796875 35.5126488095238  53.515625 40.5297619047619  48.515625 44  C 53.515625 47.4702380952381  57.6796875 52.4873511904762  61.0078125 59.0513392857143  C 64.3359375 65.6153273809524  66 73.1696428571429  66 81.7142857142857  L 70.5 81.7142857142857  C 70.9375 81.7142857142857  71.296875 81.8616071428571  71.578125 82.15625  C 71.859375 82.4508928571429  72 82.827380952381  72 83.2857142857143  L 72 86.4285714285714  C 72 86.8869047619048  71.859375 87.2633928571429  71.578125 87.5580357142857  C 71.296875 87.8526785714286  70.9375 88  70.5 88  L 1.5 88  C 1.0625 88  0.703125 87.8526785714286  0.421875 87.5580357142857  C 0.140625 87.2633928571429  0 86.8869047619048  0 86.4285714285714  L 0 83.2857142857143  C 0 82.827380952381  0.140625 82.4508928571429  0.421875 82.15625  C 0.703125 81.8616071428571  1.0625 81.7142857142857  1.5 81.7142857142857  L 6 81.7142857142857  C 6 73.1696428571429  7.6640625 65.6153273809524  10.9921875 59.0513392857143  C 14.3203125 52.4873511904762  18.484375 47.4702380952381  23.484375 44  C 18.484375 40.5297619047619  14.3203125 35.5126488095238  10.9921875 28.9486607142857  C 7.6640625 22.3846726190476  6 14.8303571428571  6 6.28571428571428  L 1.5 6.28571428571428  C 1.0625 6.28571428571428  0.703125 6.13839285714286  0.421875 5.84375  C 0.140625 5.54910714285714  0 5.17261904761904  0 4.71428571428572  L 0 1.57142857142858  C 0 1.11309523809523  0.140625 0.736607142857141  0.421875 0.441964285714283  C 0.703125 0.147321428571424  1.0625 0  1.5 0  L 70.5 0  C 70.9375 0  71.296875 0.147321428571424  71.578125 0.441964285714283  C 71.859375 0.736607142857141  72 1.11309523809523  72 1.57142857142858  L 72 4.71428571428572  C 72 5.17261904761904  71.859375 5.54910714285714  71.578125 5.84375  C 71.296875 6.13839285714286  70.9375 6.28571428571428  70.5 6.28571428571428  Z M 56.015625 26  C 58.671875 19.3154761904762  60 13.0297619047619  60 7  L 12 7  C 12 13.0297619047619  13.328125 19.3154761904762  15.984375 26  L 56.015625 26  Z M 14.671875 66  L 57.328125 66  C 55.640625 61.3839285714286  53.3671875 57.4308035714286  50.5078125 54.140625  C 47.6484375 50.8504464285714  44.609375 48.5178571428571  41.390625 47  L 30.609375 47  C 27.390625 48.5178571428571  24.3515625 50.8504464285714  21.4921875 54.140625  C 18.6328125 57.4308035714286  16.359375 61.3839285714286  14.671875 66  Z " fill-rule="nonzero" fill="#000000" stroke="none" transform="matrix(1 0 0 1 915 314 )" />
  </g>
</svg>