<?xml version="1.0" encoding="utf-8"?>
<svg version="1.1" xmlns:xlink="http://www.w3.org/1999/xlink" width="34px" height="35px" xmlns="http://www.w3.org/2000/svg">
  <g transform="matrix(1 0 0 1 -397 -178 )">
    <path d="M 33.3802083333333 0.588942307692309  C 33.7934027777778 0.981570512820509  34 1.45833333333333  34 2.01923076923077  L 34 25.5769230769231  C 34 26.2780448717949  33.7491319444444 26.9020432692308  33.2473958333333 27.4489182692308  C 32.7456597222222 27.9957932692308  32.1111111111111 28.4199719551282  31.34375 28.7214543269231  C 30.5763888888889 29.0229366987179  29.8127170138889 29.2472956730769  29.052734375 29.39453125  C 28.2927517361111 29.5417668269231  27.5807291666667 29.6153846153846  26.9166666666667 29.6153846153846  C 26.2526041666667 29.6153846153846  25.5405815972222 29.5417668269231  24.7805989583333 29.39453125  C 24.0206163194444 29.2472956730769  23.2569444444444 29.0229366987179  22.4895833333333 28.7214543269231  C 21.7222222222222 28.4199719551282  21.0876736111111 27.9957932692308  20.5859375 27.4489182692308  C 20.0842013888889 26.9020432692308  19.8333333333333 26.2780448717949  19.8333333333333 25.5769230769231  C 19.8333333333333 24.8758012820513  20.0842013888889 24.2518028846154  20.5859375 23.7049278846154  C 21.0876736111111 23.1580528846154  21.7222222222222 22.7338741987179  22.4895833333333 22.4323918269231  C 23.2569444444444 22.1309094551282  24.0206163194444 21.9065504807692  24.7805989583333 21.7593149038462  C 25.5405815972222 21.6120793269231  26.2526041666667 21.5384615384615  26.9166666666667 21.5384615384615  C 28.4661458333333 21.5384615384615  29.8828125 21.8118990384615  31 22.3587740384615  L 31 11.0637019230769  L 14.1666666666667 16.0486778846154  L 14.1666666666667 30.9615384615385  C 14.1666666666667 31.6626602564103  13.9157986111111 32.2866586538462  13.4140625 32.8335336538462  C 12.9123263888889 33.3804086538462  12.2777777777778 33.8045873397436  11.5104166666667 34.1060697115385  C 10.7430555555556 34.4075520833333  9.97938368055556 34.6319110576923  9.21940104166667 34.7791466346154  C 8.45941840277778 34.9263822115385  7.74739583333333 35  7.08333333333333 35  C 6.41927083333333 35  5.70724826388889 34.9263822115385  4.947265625 34.7791466346154  C 4.18728298611111 34.6319110576923  3.42361111111111 34.4075520833333  2.65625 34.1060697115385  C 1.88888888888889 33.8045873397436  1.25434027777778 33.3804086538462  0.752604166666667 32.8335336538462  C 0.250868055555556 32.2866586538462  0 31.6626602564103  0 30.9615384615385  C 0 30.2604166666667  0.250868055555556 29.6364182692308  0.752604166666667 29.0895432692308  C 1.25434027777778 28.5426682692308  1.88888888888889 28.1184895833333  2.65625 27.8170072115385  C 3.42361111111111 27.5155248397436  4.18728298611111 27.2911658653846  4.947265625 27.1439302884615  C 5.70724826388889 26.9966947115385  6.41927083333333 26.9230769230769  7.08333333333333 26.9230769230769  C 8.6328125 26.9230769230769  10.0494791666667 27.1965144230769  12 27.7433894230769  L 12 7.40384615384616  C 11.3333333333333 6.96915064102564  11.4735243055556 6.57301682692308  11.75390625 6.21544471153846  C 12.0342881944444 5.85787259615384  12.3958333333333 5.60897435897435  12.8385416666667 5.46875  L 31.2552083333333 0.0841346153846151  C 31.4322916666667 0.0280448717948717  31.6388888888889 0  31.875 0  C 32.4652777777778 0  32.9670138888889 0.196314102564102  33.3802083333333 0.588942307692309  Z " fill-rule="nonzero" fill="#000000" stroke="none" transform="matrix(1 0 0 1 397 178 )" />
  </g>
</svg>