<?xml version="1.0" encoding="utf-8"?>
<svg version="1.1" xmlns:xlink="http://www.w3.org/1999/xlink" width="12px" height="12px" viewBox="1115 358  12 12" xmlns="http://www.w3.org/2000/svg">
  <path d="M 1121 358  C 1124.36 358  1127 360.64  1127 364  C 1127 367.36  1124.36 370  1121 370  C 1117.64 370  1115 367.36  1115 364  C 1115 360.64  1117.64 358  1121 358  Z " fill-rule="nonzero" fill="#ffffff" stroke="none" />
  <path d="M 1121 358.5  C 1124.08 358.5  1126.5 360.92  1126.5 364  C 1126.5 367.08  1124.08 369.5  1121 369.5  C 1117.92 369.5  1115.5 367.08  1115.5 364  C 1115.5 360.92  1117.92 358.5  1121 358.5  Z " stroke-width="1" stroke="#797979" fill="none" />
  <path d="M 1121 367  C 1119.32 367  1118 365.68  1118 364  C 1118 362.32  1119.32 361  1121 361  C 1122.68 361  1124 362.32  1124 364  C 1124 365.68  1122.68 367  1121 367  " fill-rule="nonzero" fill="#797979" stroke="none" />
</svg>