<?xml version="1.0" encoding="utf-8"?>
<svg version="1.1" xmlns:xlink="http://www.w3.org/1999/xlink" width="12px" height="12px" viewBox="1115 475  12 12" xmlns="http://www.w3.org/2000/svg">
  <path d="M 1121 475  C 1124.36 475  1127 477.64  1127 481  C 1127 484.36  1124.36 487  1121 487  C 1117.64 487  1115 484.36  1115 481  C 1115 477.64  1117.64 475  1121 475  Z " fill-rule="nonzero" fill="#ffffff" stroke="none" />
  <path d="M 1121 475.5  C 1124.08 475.5  1126.5 477.92  1126.5 481  C 1126.5 484.08  1124.08 486.5  1121 486.5  C 1117.92 486.5  1115.5 484.08  1115.5 481  C 1115.5 477.92  1117.92 475.5  1121 475.5  Z " stroke-width="1" stroke="#797979" fill="none" />
  <path d="M 1121 484  C 1119.32 484  1118 482.68  1118 481  C 1118 479.32  1119.32 478  1121 478  C 1122.68 478  1124 479.32  1124 481  C 1124 482.68  1122.68 484  1121 484  " fill-rule="nonzero" fill="#797979" stroke="none" />
</svg>