<?xml version="1.0" encoding="utf-8"?>
<svg version="1.1" xmlns:xlink="http://www.w3.org/1999/xlink" width="12px" height="12px" viewBox="1115 397  12 12" xmlns="http://www.w3.org/2000/svg">
  <path d="M 1121 397  C 1124.36 397  1127 399.64  1127 403  C 1127 406.36  1124.36 409  1121 409  C 1117.64 409  1115 406.36  1115 403  C 1115 399.64  1117.64 397  1121 397  Z " fill-rule="nonzero" fill="#f0f0f0" stroke="none" />
  <path d="M 1121 397.5  C 1124.08 397.5  1126.5 399.92  1126.5 403  C 1126.5 406.08  1124.08 408.5  1121 408.5  C 1117.92 408.5  1115.5 406.08  1115.5 403  C 1115.5 399.92  1117.92 397.5  1121 397.5  Z " stroke-width="1" stroke="#797979" fill="none" />
  <path d="M 1121 406  C 1119.32 406  1118 404.68  1118 403  C 1118 401.32  1119.32 400  1121 400  C 1122.68 400  1124 401.32  1124 403  C 1124 404.68  1122.68 406  1121 406  " fill-rule="nonzero" fill="#797979" stroke="none" />
</svg>