<?xml version="1.0" encoding="utf-8"?>
<svg version="1.1" xmlns:xlink="http://www.w3.org/1999/xlink" width="12px" height="12px" viewBox="1115 514  12 12" xmlns="http://www.w3.org/2000/svg">
  <path d="M 1121 514  C 1124.36 514  1127 516.64  1127 520  C 1127 523.36  1124.36 526  1121 526  C 1117.64 526  1115 523.36  1115 520  C 1115 516.64  1117.64 514  1121 514  Z " fill-rule="nonzero" fill="#f0f0f0" stroke="none" />
  <path d="M 1121 514.5  C 1124.08 514.5  1126.5 516.92  1126.5 520  C 1126.5 523.08  1124.08 525.5  1121 525.5  C 1117.92 525.5  1115.5 523.08  1115.5 520  C 1115.5 516.92  1117.92 514.5  1121 514.5  Z " stroke-width="1" stroke="#797979" fill="none" />
  <path d="M 1121 523  C 1119.32 523  1118 521.68  1118 520  C 1118 518.32  1119.32 517  1121 517  C 1122.68 517  1124 518.32  1124 520  C 1124 521.68  1122.68 523  1121 523  " fill-rule="nonzero" fill="#797979" stroke="none" />
</svg>