<?xml version="1.0" encoding="utf-8"?>
<svg version="1.1" xmlns:xlink="http://www.w3.org/1999/xlink" width="12px" height="12px" viewBox="1115 553  12 12" xmlns="http://www.w3.org/2000/svg">
  <path d="M 1121 553  C 1124.36 553  1127 555.64  1127 559  C 1127 562.36  1124.36 565  1121 565  C 1117.64 565  1115 562.36  1115 559  C 1115 555.64  1117.64 553  1121 553  Z " fill-rule="nonzero" fill="#f0f0f0" stroke="none" />
  <path d="M 1121 553.5  C 1124.08 553.5  1126.5 555.92  1126.5 559  C 1126.5 562.08  1124.08 564.5  1121 564.5  C 1117.92 564.5  1115.5 562.08  1115.5 559  C 1115.5 555.92  1117.92 553.5  1121 553.5  Z " stroke-width="1" stroke="#797979" fill="none" />
  <path d="M 1121 562  C 1119.32 562  1118 560.68  1118 559  C 1118 557.32  1119.32 556  1121 556  C 1122.68 556  1124 557.32  1124 559  C 1124 560.68  1122.68 562  1121 562  " fill-rule="nonzero" fill="#797979" stroke="none" />
</svg>