<?xml version="1.0" encoding="utf-8"?>
<svg version="1.1" xmlns:xlink="http://www.w3.org/1999/xlink" width="12px" height="12px" viewBox="1115 631  12 12" xmlns="http://www.w3.org/2000/svg">
  <path d="M 1121 631  C 1124.36 631  1127 633.64  1127 637  C 1127 640.36  1124.36 643  1121 643  C 1117.64 643  1115 640.36  1115 637  C 1115 633.64  1117.64 631  1121 631  Z " fill-rule="nonzero" fill="#ffffff" stroke="none" />
  <path d="M 1121 631.5  C 1124.08 631.5  1126.5 633.92  1126.5 637  C 1126.5 640.08  1124.08 642.5  1121 642.5  C 1117.92 642.5  1115.5 640.08  1115.5 637  C 1115.5 633.92  1117.92 631.5  1121 631.5  Z " stroke-width="1" stroke="#797979" fill="none" />
  <path d="M 1121 640  C 1119.32 640  1118 638.68  1118 637  C 1118 635.32  1119.32 634  1121 634  C 1122.68 634  1124 635.32  1124 637  C 1124 638.68  1122.68 640  1121 640  " fill-rule="nonzero" fill="#797979" stroke="none" />
</svg>