<?xml version="1.0" encoding="utf-8"?>
<svg version="1.1" xmlns:xlink="http://www.w3.org/1999/xlink" width="12px" height="12px" viewBox="1115 670  12 12" xmlns="http://www.w3.org/2000/svg">
  <path d="M 1121 670  C 1124.36 670  1127 672.64  1127 676  C 1127 679.36  1124.36 682  1121 682  C 1117.64 682  1115 679.36  1115 676  C 1115 672.64  1117.64 670  1121 670  Z " fill-rule="nonzero" fill="#f0f0f0" stroke="none" />
  <path d="M 1121 670.5  C 1124.08 670.5  1126.5 672.92  1126.5 676  C 1126.5 679.08  1124.08 681.5  1121 681.5  C 1117.92 681.5  1115.5 679.08  1115.5 676  C 1115.5 672.92  1117.92 670.5  1121 670.5  Z " stroke-width="1" stroke="#797979" fill="none" />
  <path d="M 1121 679  C 1119.32 679  1118 677.68  1118 676  C 1118 674.32  1119.32 673  1121 673  C 1122.68 673  1124 674.32  1124 676  C 1124 677.68  1122.68 679  1121 679  " fill-rule="nonzero" fill="#797979" stroke="none" />
</svg>