<?xml version="1.0" encoding="utf-8"?>
<svg version="1.1" xmlns:xlink="http://www.w3.org/1999/xlink" width="12px" height="12px" viewBox="1115 748  12 12" xmlns="http://www.w3.org/2000/svg">
  <path d="M 1121 748  C 1124.36 748  1127 750.64  1127 754  C 1127 757.36  1124.36 760  1121 760  C 1117.64 760  1115 757.36  1115 754  C 1115 750.64  1117.64 748  1121 748  Z " fill-rule="nonzero" fill="#ffffff" stroke="none" />
  <path d="M 1121 748.5  C 1124.08 748.5  1126.5 750.92  1126.5 754  C 1126.5 757.08  1124.08 759.5  1121 759.5  C 1117.92 759.5  1115.5 757.08  1115.5 754  C 1115.5 750.92  1117.92 748.5  1121 748.5  Z " stroke-width="1" stroke="#797979" fill="none" />
  <path d="M 1121 757  C 1119.32 757  1118 755.68  1118 754  C 1118 752.32  1119.32 751  1121 751  C 1122.68 751  1124 752.32  1124 754  C 1124 755.68  1122.68 757  1121 757  " fill-rule="nonzero" fill="#797979" stroke="none" />
</svg>