<?xml version="1.0" encoding="utf-8"?>
<svg version="1.1" xmlns:xlink="http://www.w3.org/1999/xlink" width="25px" height="25px" xmlns="http://www.w3.org/2000/svg">
  <defs>
    <filter x="216px" y="582px" width="25px" height="25px" filterUnits="userSpaceOnUse" id="filter2">
      <feOffset dx="1" dy="1" in="SourceAlpha" result="shadowOffsetInner" />
      <feGaussianBlur stdDeviation="2.5" in="shadowOffsetInner" result="shadowGaussian" />
      <feComposite in2="shadowGaussian" operator="atop" in="SourceAlpha" result="shadowComposite" />
      <feColorMatrix type="matrix" values="0 0 0 0 0  0 0 0 0 0  0 0 0 0 0  0 0 0 0.698039215686274 0  " in="shadowComposite" />
    </filter>
    <g id="widget3">
      <path d="M 227.5 586  C 231.7 586  235 589.3  235 593.5  C 235 597.7  231.7 601  227.5 601  C 223.3 601  220 597.7  220 593.5  C 220 589.3  223.3 586  227.5 586  Z " fill-rule="nonzero" fill="#009dd9" stroke="none" />
      <path d="M 227.5 586.5  C 231.42 586.5  234.5 589.58  234.5 593.5  C 234.5 597.42  231.42 600.5  227.5 600.5  C 223.58 600.5  220.5 597.42  220.5 593.5  C 220.5 589.58  223.58 586.5  227.5 586.5  Z " stroke-width="1" stroke="#ffffff" fill="none" />
    </g>
  </defs>
  <g transform="matrix(1 0 0 1 -216 -582 )">
    <use xlink:href="#widget3" filter="url(#filter2)" />
    <use xlink:href="#widget3" />
  </g>
</svg>