<?xml version="1.0" encoding="utf-8"?>
<svg version="1.1" xmlns:xlink="http://www.w3.org/1999/xlink" width="46px" height="34px" xmlns="http://www.w3.org/2000/svg">
  <g transform="matrix(1 0 0 1 -1009 -299 )">
    <path d="M 32.3694196428571 15.1164431898377  C 32.694568452381 14.812514702423  32.8571428571429 14.4525993883792  32.8571428571429 14.0366972477064  C 32.8571428571429 13.6207951070336  32.694568452381 13.2608797929899  32.3694196428571 12.9569513055752  C 32.0442708333333 12.6530228181604  31.6592261904762 12.5010585744531  31.2142857142857 12.5010585744531  C 28.2708333333333 12.5010585744531  25.5498511904762 12.8969654199012  23.0513392857143 13.6887791107975  C 20.5528273809524 14.4805928016937  18.3324032738095 15.5523406257351  16.3900669642857 16.9040225829217  C 14.4477306547619 18.2557045401082  12.4326636904762 20.0112914608327  10.3448660714286 22.1707833450953  C 10.0197172619048 22.5067043048694  9.85714285714286 22.8666196189132  9.85714285714286 23.2505292872265  C 9.85714285714286 23.6664314278993  10.0197172619048 24.0263467419431  10.3448660714286 24.3302752293578  C 10.6700148809524 24.6342037167725  11.0550595238095 24.7861679604799  11.5 24.7861679604799  C 11.9107142857143 24.7861679604799  12.2957589285714 24.6342037167725  12.6551339285714 24.3302752293578  C 13.1171875 23.9463655610445  13.7503720238095 23.3784991766643  14.5546875 22.6266760762174  C 15.3590029761905 21.8748529757704  15.9322916666667 21.3469771818396  16.2745535714286 21.0430486944248  C 18.6190476190476 19.0595154081393  20.9164806547619 17.6518466243237  23.1668526785714 16.8200423429781  C 25.417224702381 15.9882380616326  28.0997023809524 15.5723359209598  31.2142857142857 15.5723359209598  C 31.6592261904762 15.5723359209598  32.0442708333333 15.4203716772524  32.3694196428571 15.1164431898377  Z M 45.7946428571429 6.98235709244883  C 45.9315476190476 7.91013879087273  46 8.67795812749941  46 9.28581510232886  C 46 10.8054575394025  45.8288690476191 12.3490943307457  45.4866071428571 13.9167254763585  C 44.6994047619048 17.4998823806163  43.1207217261905 20.5631616090332  40.7505580357143 23.106563161609  C 38.3803943452381 25.6499647141849  35.3214285714286 27.7934603622677  31.5736607142857 29.5370501058574  C 27.9114583333333 31.2646436132675  24.1636904761905 32.1284403669725  20.3303571428571 32.1284403669725  C 17.797619047619 32.1284403669725  15.3504464285714 31.752528816749  12.9888392857143 31.000705716302  C 12.7321428571429 30.9207245354034  11.9791666666667 30.5848035756293  10.7299107142857 29.9929428369795  C 9.48065476190476 29.4010820983298  8.65922619047619 29.1051517290049  8.265625 29.1051517290049  C 7.99181547619048 29.1051517290049  7.65383184523809 29.3610915078805  7.25167410714286 29.8729710656316  C 6.84951636904762 30.3848506233827  6.46447172619048 30.944718889673  6.09654017857143 31.5525758645025  C 5.72860863095238 32.1604328393319  5.27938988095238 32.7203011056222  4.74888392857143 33.2321806633733  C 4.21837797619048 33.7440602211244  3.70498511904762 34  3.20870535714286 34  C 2.47284226190476 34  1.92950148809524 33.8600329334274  1.57868303571429 33.5800988002823  C 1.22786458333333 33.3001646671371  0.838541666666667 32.8242766407904  0.410714285714286 32.1524347212421  C 0.376488095238095 32.0884497765232  0.32514880952381 32.0004704775347  0.256696428571429 31.8884968242766  C 0.188244047619048 31.7765231710186  0.141183035714286 31.69654199012  0.115513392857143 31.6485532815808  C 0.08984375 31.6005645730416  0.0641741071428572 31.524582451188  0.0385044642857143 31.4206069160198  C 0.0128348214285714 31.3166313808516  0 31.2086567866384  0 31.0966831333804  C 0 30.5368148670901  0.265252976190476 29.9489531874853  0.795758928571429 29.333098094566  C 1.32626488095238 28.7172430016467  1.90811011904762 28.1933662667608  2.54129464285714 27.7614678899083  C 3.17447916666667 27.3295695130558  3.7563244047619 26.8816749000235  4.28683035714286 26.4177840508116  C 4.81733630952381 25.9538932015996  5.08258928571429 25.5699835332863  5.08258928571429 25.2660550458716  C 5.08258928571429 25.2020701011527  4.96279761904762 24.8981416137379  4.72321428571429 24.3542695836274  C 4.48363095238095 23.8103975535168  4.34672619047619 23.4584803575629  4.3125 23.2985179957657  C 4.15848214285714 22.4827099505999  4.08147321428571 21.6509056692543  4.08147321428571 20.803105151729  C 4.08147321428571 18.9635379910609  4.45368303571429 17.2039520112915  5.19810267857143 15.5243472124206  C 5.94252232142857 13.8447424135498  6.96075148809524 12.3690896259704  8.25279017857143 11.0973888496824  C 9.54482886904762 9.8256880733945  11.0037202380952 8.71394965890378  12.6294642857143 7.7621736062103  C 14.2552083333333 6.81039755351682  16.000744047619 6.04657727593507  17.8660714285714 5.47071277346507  C 18.8072916666667 5.18278052223006  20.0479910714286 4.9788285109386  21.5881696428571 4.85885673959068  C 23.1283482142857 4.73888496824277  24.6642485119048 4.66690190543402  26.1958705357143 4.64290755116443  C 27.7274925595238 4.61891319689485  29.2548363095238 4.57092448835568  30.7779017857143 4.49894142554693  C 32.3009672619048 4.42695836273818  33.6999627976191 4.23500352858151  34.9748883928571 3.92307692307692  C 36.2498139880952 3.61115031757234  37.2209821428571 3.15925664549517  37.8883928571429 2.56739590684545  L 38.6456473214286 1.85956245589273  C 38.6456473214286 1.85956245589273  38.8980654761905 1.63561514937661  39.4029017857143 1.18772053634439  C 39.9077380952381 0.739825923312162  40.1387648809524 0.579863561514932  40.0959821428571 0.707833450952718  C 40.0531994047619 0.835803340390496  40.3655133928571 0.707833450952718  41.0329241071429 0.32392378263938  C 41.7003348214286 -0.0599858856739619  42.0725446428571 -0.0959774170783345  42.1495535714286 0.215949188426251  C 42.8169642857143 0.215949188426251  43.4202008928571 0.583862620559865  43.9592633928571 1.3196894848271  C 44.4983258928571 2.05551634909433  44.9047619047619 2.95130557515878  45.1785714285714 4.00705716302046  C 45.452380952381 5.06280875088214  45.6577380952381 6.05457539402493  45.7946428571429 6.98235709244883  Z " fill-rule="nonzero" fill="#000000" stroke="none" transform="matrix(1 0 0 1 1009 299 )" />
  </g>
</svg>