<?xml version="1.0" encoding="utf-8"?>
<svg version="1.1" xmlns:xlink="http://www.w3.org/1999/xlink" width="43px" height="41px" xmlns="http://www.w3.org/2000/svg">
  <g transform="matrix(1 0 0 1 -1009 -514 )">
    <path d="M 2.61405465699944 38.5075292805354  C 2.91782859267522 38.7971741959472  3.06971556051311 39.1401747536717  3.06971556051311 39.5365309537089  C 3.06971556051311 39.9328871537461  2.91782859267522 40.2758877114705  2.61405465699944 40.5655326268823  C 2.31028072132367 40.8551775422941  1.95054842907604 41  1.53485778025655 41  C 1.11916713143707 41  0.75943483918944 40.8551775422941  0.455660903513664 40.5655326268823  C 0.151886967837888 40.2758877114705  0 39.9328871537461  0 39.5365309537089  C 0 39.1401747536717  0.151886967837888 38.7971741959472  0.455660903513664 38.5075292805354  C 0.75943483918944 38.2178843651236  1.11916713143707 38.0730619074177  1.53485778025655 38.0730619074177  C 1.95054842907604 38.0730619074177  2.31028072132367 38.2178843651236  2.61405465699944 38.5075292805354  Z M 7.2186279977691 34.117122141662  C 7.52240193344488 34.4067670570738  7.67428890128277 34.7497676147983  7.67428890128277 35.1461238148355  C 7.67428890128277 35.5424800148727  7.52240193344488 35.8854805725971  7.2186279977691 36.1751254880089  C 6.91485406209333 36.4647704034207  6.5551217698457 36.6095928611266  6.13943112102621 36.6095928611266  C 5.72374047220673 36.6095928611266  5.3640081799591 36.4647704034207  5.06023424428332 36.1751254880089  C 4.75646030860755 35.8854805725971  4.60457334076966 35.5424800148727  4.60457334076966 35.1461238148355  C 4.60457334076966 34.7497676147983  4.75646030860755 34.4067670570738  5.06023424428332 34.117122141662  C 5.3640081799591 33.8274772262502  5.72374047220673 33.6826547685443  6.13943112102621 33.6826547685443  C 6.5551217698457 33.6826547685443  6.91485406209333 33.8274772262502  7.2186279977691 34.117122141662  Z M 6.59509202453988 28.8577802565533  L 8.75348577802565 26.7997769102064  L 14.8929168990519 32.6536530953709  L 12.7345231455661 34.7116564417178  L 6.59509202453988 28.8577802565533  Z M 16.4277746793084 25.3363078639152  C 16.7315486149842 25.625952779327  16.8834355828221 25.9689533370515  16.8834355828221 26.3653095370887  C 16.8834355828221 26.7616657371259  16.7315486149842 27.1046662948503  16.4277746793084 27.3943112102621  C 16.1240007436326 27.6839561256739  15.764268451385 27.8287785833798  15.3485778025655 27.8287785833798  C 14.9328871537461 27.8287785833798  14.5731548614984 27.6839561256739  14.2693809258226 27.3943112102621  C 13.9656069901469 27.1046662948503  13.813720022309 26.7616657371259  13.813720022309 26.3653095370887  C 13.813720022309 25.9689533370515  13.9656069901469 25.625952779327  14.2693809258226 25.3363078639152  C 14.5731548614984 25.0466629485034  14.9328871537461 24.9018404907975  15.3485778025655 24.9018404907975  C 15.764268451385 24.9018404907975  16.1240007436326 25.0466629485034  16.4277746793084 25.3363078639152  Z M 32.7476296709426 13.9372559955382  C 33.4750883063767 15.5607919687674  33.8388176240937 17.2643614054657  33.8388176240937 19.047964305633  C 33.8388176240937 19.9473879903328  33.7468860382971 20.7744004461796  33.5630228667039 21.5290016731735  C 33.3791596951106 22.2836029001673  33.0793827849043 22.9962818367726  32.6636921360848 23.6670384829894  C 32.2480014872653 24.3377951292062  31.8962632459565 24.8522959657929  31.6084774121584 25.2105409927496  C 31.3206915783603 25.5687860197063  30.897006878602 26.0604201524447  30.3374233128834 26.6854433909649  C 29.8417921546756 27.2189998140918  29.4780628369585 27.6306004833612  29.2462353597323 27.920245398773  C 29.014407882506 28.2098903141848  28.746607176055 28.5910020449898  28.4428332403793 29.063580591188  C 28.1390593047035 29.5361591373861  27.9272169548243 30.0239821528165  27.8073061907418 30.5270496374791  C 27.6873954266592 31.0301171221417  27.627440044618 31.594162483733  27.627440044618 32.2191857222532  C 27.627440044618 34.6430563301729  26.7281093139989 36.7124930284439  24.9294478527607 38.4274958170664  C 23.1307863915226 40.1424986056888  20.9604015616286 41  18.4182933630786 41  C 18.0026027142592 41  17.6428704220115 40.8551775422941  17.3390964863358 40.5655326268823  C 17.03532255066 40.2758877114705  16.8834355828221 39.9328871537461  16.8834355828221 39.5365309537089  C 16.8834355828221 39.1401747536717  17.03532255066 38.7971741959472  17.3390964863358 38.5075292805354  C 17.6428704220115 38.2178843651236  18.0026027142592 38.0730619074177  18.4182933630786 38.0730619074177  C 20.1130321621119 38.0730619074177  21.5599553820413 37.5013943112103  22.7590630228667 36.3580591187953  C 23.9581706636921 35.2147239263804  24.5577244841049 33.8350994608663  24.5577244841049 32.2191857222532  C 24.5577244841049 31.3502509760178  24.6496560699015 30.5461052240193  24.8335192414947 29.8067484662577  C 25.0173824130879 29.067391708496  25.3131622978249 28.3737683584309  25.7208588957055 27.7258784160625  C 26.1285554935862 27.077988473694  26.4762967094255 26.5711098717234  26.7640825432236 26.2052426101506  C 27.0518683770218 25.8393753485778  27.4675590258412 25.3591745677635  28.0111544896821 24.7646402677078  C 28.650678564789 24.0633946830266  29.1263245956497 23.5145937906674  29.4380925822644 23.1182375906302  C 29.749860568879 22.721881390593  30.0496374790853 22.1540249116936  30.3374233128834 21.414668153932  C 30.6252091466815 20.6753113961703  30.7691020635806 19.886410113404  30.7691020635806 19.047964305633  C 30.7691020635806 16.2277374976761  29.7178843651236 13.8153002416806  27.6154489682097 11.8106525376464  C 25.5130135712958 9.8060048336122  22.9828964491541 8.80368098159509  20.0250976017847 8.80368098159509  C 17.0672987544153 8.80368098159509  14.5371816322737 9.8060048336122  12.4347462353597 11.8106525376464  C 10.3323108384458 13.8153002416806  9.28109313998885 16.2277374976761  9.28109313998885 19.047964305633  C 9.28109313998885 19.4443205056702  9.12920617215096 19.7873210633947  8.82543223647518 20.0769659788065  C 8.52165830079941 20.3666108942183  8.16192600855178 20.5114333519242  7.74623535973229 20.5114333519242  C 7.33054471091281 20.5114333519242  6.97081241866518 20.3666108942183  6.6670384829894 20.0769659788065  C 6.36326454731363 19.7873210633947  6.21137757947574 19.4443205056702  6.21137757947574 19.047964305633  C 6.21137757947574 17.2643614054657  6.57510689719279 15.5607919687674  7.30256553262688 13.9372559955382  C 8.03002416806098 12.313720022309  9.01329243353783 10.9112288529466  10.2523703290574 9.7297824874512  C 11.4914482245771 8.54833612195575  12.9623535973229 7.6108012641755  14.665086447295 6.91717791411043  C 16.3678192972672 6.22355456404536  18.154489682097 5.87674288901283  20.0250976017847 5.87674288901283  C 21.8957055214724 5.87674288901283  23.6823759063023 6.22355456404536  25.3851087562744 6.91717791411043  C 27.0878416062465 7.6108012641755  28.5587469789924 8.54833612195575  29.797824874512 9.7297824874512  C 31.0369027700316 10.9112288529466  32.0201710355085 12.313720022309  32.7476296709426 13.9372559955382  Z M 21.0323480200781 20.9459007250418  C 21.3361219557539 21.2355456404536  21.4880089235917 21.5785461981781  21.4880089235917 21.9749023982153  C 21.4880089235917 22.3712585982525  21.3361219557539 22.7142591559769  21.0323480200781 23.0039040713887  C 20.7285740844023 23.2935489868005  20.3688417921547 23.4383714445064  19.9531511433352 23.4383714445064  C 19.5374604945157 23.4383714445064  19.1777282022681 23.2935489868005  18.8739542665923 23.0039040713887  C 18.5701803309165 22.7142591559769  18.4182933630786 22.3712585982525  18.4182933630786 21.9749023982153  C 18.4182933630786 21.5785461981781  18.5701803309165 21.2355456404536  18.8739542665923 20.9459007250418  C 19.1777282022681 20.65625580963  19.5374604945157 20.5114333519242  19.9531511433352 20.5114333519242  C 20.3688417921547 20.5114333519242  20.7285740844023 20.65625580963  21.0323480200781 20.9459007250418  Z M 25.9247071946458 13.3541550474066  C 27.5714816880461 14.9243353783231  28.3948689347462 16.8222717977319  28.3948689347462 19.047964305633  C 28.3948689347462 19.4443205056702  28.2429819669083 19.7873210633947  27.9392080312326 20.0769659788065  C 27.6354340955568 20.3666108942183  27.2757018033092 20.5114333519242  26.8600111544897 20.5114333519242  C 26.4443205056702 20.5114333519242  26.0845882134226 20.3666108942183  25.7808142777468 20.0769659788065  C 25.477040342071 19.7873210633947  25.3251533742331 19.4443205056702  25.3251533742331 19.047964305633  C 25.3251533742331 17.6302286670385  24.8015430377394 16.4221044803867  23.7543223647518 15.4235917456776  C 22.7071016917643 14.4250790109686  21.4400446179587 13.9258226436141  19.9531511433352 13.9258226436141  C 18.4822457705893 13.9258226436141  17.2191857222532 14.4250790109686  16.1639709983268 15.4235917456776  C 15.1087562744004 16.4221044803867  14.5811489124373 17.6302286670385  14.5811489124373 19.047964305633  C 14.5811489124373 19.4443205056702  14.4292619445994 19.7873210633947  14.1254880089236 20.0769659788065  C 13.8217140732478 20.3666108942183  13.4619817810002 20.5114333519242  13.0462911321807 20.5114333519242  C 12.6306004833612 20.5114333519242  12.2708681911136 20.3666108942183  11.9670942554378 20.0769659788065  C 11.663320319762 19.7873210633947  11.5114333519242 19.4443205056702  11.5114333519242 19.047964305633  C 11.5114333519242 16.8222717977319  12.3348205986243 14.9243353783231  13.9815950920245 13.3541550474066  C 15.6283695854248 11.7839747164901  17.618888269195 10.9988845510318  19.9531511433352 10.9988845510318  C 22.2874140174754 10.9988845510318  24.2779327012456 11.7839747164901  25.9247071946458 13.3541550474066  Z M 31.4645844952593 4.4132738427217  C 34.3904071388734 6.501766127533  36.5168246886038 9.17717047778397  37.8438371444506 12.4394868934746  C 38.0037181632274 12.8205986242796  37.9957241122885 13.1940881204685  37.8198549916341 13.5599553820413  C 37.6439858709797 13.9258226436141  37.3562000371816 14.1849786205614  36.9564974902398 14.3374233128834  C 36.8126045733408 14.3984011898122  36.6287414017475 14.4288901282766  36.4049079754601 14.4288901282766  C 36.1011340397843 14.4288901282766  35.8173452314557 14.3450455474995  35.5535415504741 14.1773563859453  C 35.2897378694925 14.0096672243911  35.1018776724298 13.7810001859082  34.9899609592861 13.4913552704964  C 33.9027700316044 10.7778397471649  32.1121026213051 8.52928053541551  29.6179587283882 6.74567763524819  C 29.2822085889571 6.501766127533  29.0823573154862 6.18163227365681  29.0184049079755 5.78527607361963  C 28.9544525004648 5.38891987358245  29.0503811117308 5.03067484662577  29.3061907417736 4.71054099274958  C 29.577988473694 4.3904071388734  29.921732664064 4.1998512734709  30.3374233128834 4.13887339654211  C 30.7531139617029 4.07789551961331  31.1288343558282 4.16936233500651  31.4645844952593 4.4132738427217  Z M 34.702175125488 0.320133853876183  C 38.459379066741 2.98791596951106  41.1853504368842 6.4102993121398  42.8800892359175 10.5872838817624  C 43.0239821528165 10.9683956125674  43.0119910764083 11.3418851087563  42.8441160066927 11.7077523703291  C 42.6762409369771 12.0736196319018  42.3924521286485 12.3327756088492  41.9927495817066 12.4852203011712  C 41.8168804610522 12.5461981781  41.633017289459 12.5766871165644  41.4411600669269 12.5766871165644  C 40.7376835843094 12.5766871165644  40.2580405279792 12.2641754973043  40.0022308979364 11.6391522587842  C 38.5313255251906 8.01096858152073  36.1570923963562 5.01543037739357  32.8795315114334 2.65253764640268  C 32.5277932701246 2.40862613868749  32.3239449711842 2.0884922848113  32.2679866146124 1.69213608477412  C 32.2120282580405 1.29577988473694  32.311953894776 0.937534857780256  32.5677635248187 0.617401003904072  C 32.8235731548615 0.282022680795687  33.1593232942926 0.0876556980851424  33.5750139431121 0.0343000557724482  C 33.9907045919316 -0.0190555865402551  34.3664249860569 0.0762223461609884  34.702175125488 0.320133853876183  Z " fill-rule="nonzero" fill="#000000" stroke="none" transform="matrix(1 0 0 1 1009 514 )" />
  </g>
</svg>