<?xml version="1.0" encoding="utf-8"?>
<svg version="1.1" xmlns:xlink="http://www.w3.org/1999/xlink" width="74px" height="68px" xmlns="http://www.w3.org/2000/svg">
  <g transform="matrix(1 0 0 1 -995 -500 )">
    <path d="M 1032 500  C 1052.72 500  1069 514.96  1069 534  C 1069 553.04  1052.72 568  1032 568  C 1011.28 568  995 553.04  995 534  C 995 514.96  1011.28 500  1032 500  Z " fill-rule="nonzero" fill="#ffffff" stroke="none" />
    <path d="M 1032 500.5  C 1052.44 500.5  1068.5 515.24  1068.5 534  C 1068.5 552.76  1052.44 567.5  1032 567.5  C 1011.56 567.5  995.5 552.76  995.5 534  C 995.5 515.24  1011.56 500.5  1032 500.5  Z " stroke-width="1" stroke="#797979" fill="none" />
  </g>
</svg>