<?xml version="1.0" encoding="utf-8"?>
<svg version="1.1" xmlns:xlink="http://www.w3.org/1999/xlink" width="12px" height="12px" viewBox="1852 207  12 12" xmlns="http://www.w3.org/2000/svg">
  <path d="M 1858 207  C 1861.36 207  1864 209.64  1864 213  C 1864 216.36  1861.36 219  1858 219  C 1854.64 219  1852 216.36  1852 213  C 1852 209.64  1854.64 207  1858 207  Z " fill-rule="nonzero" fill="#ffffff" stroke="none" />
  <path d="M 1858 207.5  C 1861.08 207.5  1863.5 209.92  1863.5 213  C 1863.5 216.08  1861.08 218.5  1858 218.5  C 1854.92 218.5  1852.5 216.08  1852.5 213  C 1852.5 209.92  1854.92 207.5  1858 207.5  Z " stroke-width="1" stroke="#797979" fill="none" />
  <path d="M 1858 216  C 1856.32 216  1855 214.68  1855 213  C 1855 211.32  1856.32 210  1858 210  C 1859.68 210  1861 211.32  1861 213  C 1861 214.68  1859.68 216  1858 216  " fill-rule="nonzero" fill="#797979" stroke="none" />
</svg>