<?xml version="1.0" encoding="utf-8"?>
<svg version="1.1" xmlns:xlink="http://www.w3.org/1999/xlink" width="12px" height="12px" viewBox="1852 387  12 12" xmlns="http://www.w3.org/2000/svg">
  <path d="M 1858 387  C 1861.36 387  1864 389.64  1864 393  C 1864 396.36  1861.36 399  1858 399  C 1854.64 399  1852 396.36  1852 393  C 1852 389.64  1854.64 387  1858 387  Z " fill-rule="nonzero" fill="#f0f0f0" stroke="none" />
  <path d="M 1858 387.5  C 1861.08 387.5  1863.5 389.92  1863.5 393  C 1863.5 396.08  1861.08 398.5  1858 398.5  C 1854.92 398.5  1852.5 396.08  1852.5 393  C 1852.5 389.92  1854.92 387.5  1858 387.5  Z " stroke-width="1" stroke="#797979" fill="none" />
  <path d="M 1858 396  C 1856.32 396  1855 394.68  1855 393  C 1855 391.32  1856.32 390  1858 390  C 1859.68 390  1861 391.32  1861 393  C 1861 394.68  1859.68 396  1858 396  " fill-rule="nonzero" fill="#797979" stroke="none" />
</svg>