<?xml version="1.0" encoding="utf-8"?>
<svg version="1.1" xmlns:xlink="http://www.w3.org/1999/xlink" width="12px" height="12px" viewBox="1852 297  12 12" xmlns="http://www.w3.org/2000/svg">
  <path d="M 1858 297  C 1861.36 297  1864 299.64  1864 303  C 1864 306.36  1861.36 309  1858 309  C 1854.64 309  1852 306.36  1852 303  C 1852 299.64  1854.64 297  1858 297  Z " fill-rule="nonzero" fill="#f0f0f0" stroke="none" />
  <path d="M 1858 297.5  C 1861.08 297.5  1863.5 299.92  1863.5 303  C 1863.5 306.08  1861.08 308.5  1858 308.5  C 1854.92 308.5  1852.5 306.08  1852.5 303  C 1852.5 299.92  1854.92 297.5  1858 297.5  Z " stroke-width="1" stroke="#797979" fill="none" />
  <path d="M 1858 306  C 1856.32 306  1855 304.68  1855 303  C 1855 301.32  1856.32 300  1858 300  C 1859.68 300  1861 301.32  1861 303  C 1861 304.68  1859.68 306  1858 306  " fill-rule="nonzero" fill="#797979" stroke="none" />
</svg>