<?xml version="1.0" encoding="utf-8"?>
<svg version="1.1" xmlns:xlink="http://www.w3.org/1999/xlink" width="12px" height="12px" viewBox="1852 252  12 12" xmlns="http://www.w3.org/2000/svg">
  <path d="M 1858 252  C 1861.36 252  1864 254.64  1864 258  C 1864 261.36  1861.36 264  1858 264  C 1854.64 264  1852 261.36  1852 258  C 1852 254.64  1854.64 252  1858 252  Z " fill-rule="nonzero" fill="#f0f0f0" stroke="none" />
  <path d="M 1858 252.5  C 1861.08 252.5  1863.5 254.92  1863.5 258  C 1863.5 261.08  1861.08 263.5  1858 263.5  C 1854.92 263.5  1852.5 261.08  1852.5 258  C 1852.5 254.92  1854.92 252.5  1858 252.5  Z " stroke-width="1" stroke="#797979" fill="none" />
  <path d="M 1858 261  C 1856.32 261  1855 259.68  1855 258  C 1855 256.32  1856.32 255  1858 255  C 1859.68 255  1861 256.32  1861 258  C 1861 259.68  1859.68 261  1858 261  " fill-rule="nonzero" fill="#797979" stroke="none" />
</svg>