<?xml version="1.0" encoding="utf-8"?>
<svg version="1.1" xmlns:xlink="http://www.w3.org/1999/xlink" width="12px" height="12px" viewBox="1852 477  12 12" xmlns="http://www.w3.org/2000/svg">
  <path d="M 1858 477  C 1861.36 477  1864 479.64  1864 483  C 1864 486.36  1861.36 489  1858 489  C 1854.64 489  1852 486.36  1852 483  C 1852 479.64  1854.64 477  1858 477  Z " fill-rule="nonzero" fill="#ffffff" stroke="none" />
  <path d="M 1858 477.5  C 1861.08 477.5  1863.5 479.92  1863.5 483  C 1863.5 486.08  1861.08 488.5  1858 488.5  C 1854.92 488.5  1852.5 486.08  1852.5 483  C 1852.5 479.92  1854.92 477.5  1858 477.5  Z " stroke-width="1" stroke="#797979" fill="none" />
  <path d="M 1858 486  C 1856.32 486  1855 484.68  1855 483  C 1855 481.32  1856.32 480  1858 480  C 1859.68 480  1861 481.32  1861 483  C 1861 484.68  1859.68 486  1858 486  " fill-rule="nonzero" fill="#797979" stroke="none" />
</svg>