<?xml version="1.0" encoding="utf-8"?>
<svg version="1.1" xmlns:xlink="http://www.w3.org/1999/xlink" width="12px" height="12px" viewBox="1852 567  12 12" xmlns="http://www.w3.org/2000/svg">
  <path d="M 1858 567  C 1861.36 567  1864 569.64  1864 573  C 1864 576.36  1861.36 579  1858 579  C 1854.64 579  1852 576.36  1852 573  C 1852 569.64  1854.64 567  1858 567  Z " fill-rule="nonzero" fill="#f0f0f0" stroke="none" />
  <path d="M 1858 567.5  C 1861.08 567.5  1863.5 569.92  1863.5 573  C 1863.5 576.08  1861.08 578.5  1858 578.5  C 1854.92 578.5  1852.5 576.08  1852.5 573  C 1852.5 569.92  1854.92 567.5  1858 567.5  Z " stroke-width="1" stroke="#797979" fill="none" />
  <path d="M 1858 576  C 1856.32 576  1855 574.68  1855 573  C 1855 571.32  1856.32 570  1858 570  C 1859.68 570  1861 571.32  1861 573  C 1861 574.68  1859.68 576  1858 576  " fill-rule="nonzero" fill="#797979" stroke="none" />
</svg>