<?xml version="1.0" encoding="utf-8"?>
<svg version="1.1" xmlns:xlink="http://www.w3.org/1999/xlink" width="12px" height="12px" viewBox="1852 657  12 12" xmlns="http://www.w3.org/2000/svg">
  <path d="M 1858 657  C 1861.36 657  1864 659.64  1864 663  C 1864 666.36  1861.36 669  1858 669  C 1854.64 669  1852 666.36  1852 663  C 1852 659.64  1854.64 657  1858 657  Z " fill-rule="nonzero" fill="#ffffff" stroke="none" />
  <path d="M 1858 657.5  C 1861.08 657.5  1863.5 659.92  1863.5 663  C 1863.5 666.08  1861.08 668.5  1858 668.5  C 1854.92 668.5  1852.5 666.08  1852.5 663  C 1852.5 659.92  1854.92 657.5  1858 657.5  Z " stroke-width="1" stroke="#797979" fill="none" />
  <path d="M 1858 666  C 1856.32 666  1855 664.68  1855 663  C 1855 661.32  1856.32 660  1858 660  C 1859.68 660  1861 661.32  1861 663  C 1861 664.68  1859.68 666  1858 666  " fill-rule="nonzero" fill="#797979" stroke="none" />
</svg>