<?xml version="1.0" encoding="utf-8"?>
<svg version="1.1" xmlns:xlink="http://www.w3.org/1999/xlink" width="12px" height="12px" viewBox="1852 702  12 12" xmlns="http://www.w3.org/2000/svg">
  <path d="M 1858 702  C 1861.36 702  1864 704.64  1864 708  C 1864 711.36  1861.36 714  1858 714  C 1854.64 714  1852 711.36  1852 708  C 1852 704.64  1854.64 702  1858 702  Z " fill-rule="nonzero" fill="#f0f0f0" stroke="none" />
  <path d="M 1858 702.5  C 1861.08 702.5  1863.5 704.92  1863.5 708  C 1863.5 711.08  1861.08 713.5  1858 713.5  C 1854.92 713.5  1852.5 711.08  1852.5 708  C 1852.5 704.92  1854.92 702.5  1858 702.5  Z " stroke-width="1" stroke="#797979" fill="none" />
  <path d="M 1858 711  C 1856.32 711  1855 709.68  1855 708  C 1855 706.32  1856.32 705  1858 705  C 1859.68 705  1861 706.32  1861 708  C 1861 709.68  1859.68 711  1858 711  " fill-rule="nonzero" fill="#797979" stroke="none" />
</svg>