<?xml version="1.0" encoding="utf-8"?>
<svg version="1.1" xmlns:xlink="http://www.w3.org/1999/xlink" width="64px" height="62px" xmlns="http://www.w3.org/2000/svg">
  <g transform="matrix(1 0 0 1 -2277 -218 )">
    <path d="M 2309 218  C 2326.92 218  2341 231.64  2341 249  C 2341 266.36  2326.92 280  2309 280  C 2291.08 280  2277 266.36  2277 249  C 2277 231.64  2291.08 218  2309 218  Z " fill-rule="nonzero" fill="#ffffff" stroke="none" />
    <path d="M 2309 218.5  C 2326.64 218.5  2340.5 231.92  2340.5 249  C 2340.5 266.08  2326.64 279.5  2309 279.5  C 2291.36 279.5  2277.5 266.08  2277.5 249  C 2277.5 231.92  2291.36 218.5  2309 218.5  Z " stroke-width="1" stroke="#797979" fill="none" />
  </g>
</svg>