<?xml version="1.0" encoding="utf-8"?>
<svg version="1.1" xmlns:xlink="http://www.w3.org/1999/xlink" width="40px" height="31px" xmlns="http://www.w3.org/2000/svg">
  <g transform="matrix(1 0 0 1 -2288 -232 )">
    <path d="M 28.1473214285714 13.7826393789697  C 28.4300595238095 13.5055281110327  28.5714285714286 13.177370030581  28.5714285714286 12.7981651376147  C 28.5714285714286 12.4189602446483  28.4300595238095 12.0908021641967  28.1473214285714 11.8136908962597  C 27.8645833333333 11.5365796283227  27.5297619047619 11.3980239943543  27.1428571428571 11.3980239943543  C 24.5833333333333 11.3980239943543  22.2172619047619 11.7589978828511  20.0446428571429 12.4809456598447  C 17.8720238095238 13.2028934368384  15.9412202380952 14.1800752764056  14.2522321428571 15.4124911785462  C 12.563244047619 16.6449070806869  10.8110119047619 18.2455892731122  8.99553571428571 20.2145377558222  C 8.71279761904762 20.5208186309104  8.57142857142857 20.848976711362  8.57142857142857 21.1990119971771  C 8.57142857142857 21.5782168901435  8.71279761904762 21.9063749705952  8.99553571428571 22.1834862385321  C 9.27827380952381 22.4605975064691  9.61309523809524 22.5991531404375  10 22.5991531404375  C 10.3571428571429 22.5991531404375  10.6919642857143 22.4605975064691  11.0044642857143 22.1834862385321  C 11.40625 21.833450952717  11.9568452380952 21.3156904257822  12.65625 20.6302046577276  C 13.3556547619048 19.944718889673  13.8541666666667 19.4634203716773  14.1517857142857 19.1863091037403  C 16.1904761904762 17.3777934603623  18.1882440476191 16.0943307457069  20.1450892857143 15.3359209597742  C 22.1019345238095 14.5775111738415  24.4345238095238 14.1983062808751  27.1428571428571 14.1983062808751  C 27.5297619047619 14.1983062808751  27.8645833333333 14.0597506469066  28.1473214285714 13.7826393789697  Z M 39.8214285714286 6.36626676076217  C 39.9404761904762 7.21218536814867  40 7.91225593977887  40 8.46647847565279  C 40 9.85203481533757  39.8511904761905 11.2594683603858  39.5535714285714 12.6887791107975  C 38.8690476190476 15.9557751117384  37.4962797619048 18.7487649964714  35.4352678571429 21.0677487649965  C 33.374255952381 23.3867325335215  30.7142857142857 25.3410962126558  27.4553571428571 26.9308398023994  C 24.2708333333333 28.5059985885674  21.0119047619048 29.2935779816514  17.6785714285714 29.2935779816514  C 15.4761904761905 29.2935779816514  13.3482142857143 28.9508350976241  11.2946428571429 28.2653493295695  C 11.0714285714286 28.1924253116914  10.4166666666667 27.8861444366032  9.33035714285714 27.3465067043049  C 8.24404761904762 26.8068689720066  7.52976190476191 26.5370501058574  7.1875 26.5370501058574  C 6.94940476190476 26.5370501058574  6.65550595238095 26.7704069630675  6.30580357142857 27.2371206774876  C 5.95610119047619 27.7038343919078  5.62127976190476 28.2143025170548  5.30133928571429 28.7685250529287  C 4.98139880952381 29.3227475888026  4.59077380952381 29.8332157139497  4.12946428571429 30.2999294283698  C 3.66815476190476 30.7666431427899  3.22172619047619 31  2.79017857142857 31  C 2.15029761904762 31  1.67782738095238 30.8723829687132  1.37276785714286 30.6171489061397  C 1.06770833333333 30.3619148435662  0.729166666666667 29.9280169371913  0.357142857142857 29.3154551870148  C 0.327380952380952 29.2571159727123  0.282738095238095 29.1768995530463  0.223214285714286 29.0748059280169  C 0.163690476190476 28.9727123029875  0.122767857142857 28.8997882851094  0.100446428571429 28.8560338743825  C 0.078125 28.8122794636556  0.0558035714285714 28.7430016466714  0.0334821428571429 28.6482004234298  C 0.0111607142857143 28.5533992001882  0 28.4549517760527  0 28.3528581510233  C 0 27.8423900258763  0.230654761904762 27.3063984944719  0.691964285714286 26.7448835568102  C 1.15327380952381 26.1833686191484  1.65922619047619 25.7057163020466  2.20982142857143 25.3119266055046  C 2.76041666666667 24.9181369089626  3.26636904761905 24.509762408845  3.72767857142857 24.0868031051517  C 4.1889880952381 23.6638438014585  4.41964285714286 23.3138085156434  4.41964285714286 23.0366972477064  C 4.41964285714286 22.9783580334039  4.31547619047619 22.7012467654669  4.10714285714286 22.2053634438956  C 3.89880952380952 21.7094801223242  3.77976190476191 21.3886144436603  3.75 21.242766407904  C 3.61607142857143 20.4989414255469  3.54910714285714 19.7405316396142  3.54910714285714 18.9675370501059  C 3.54910714285714 17.2902846389085  3.87276785714286 15.6859562455893  4.52008928571429 14.1545518701482  C 5.16741071428572 12.6231474947071  6.05282738095238 11.2776993648553  7.17633928571429 10.1182074805928  C 8.29985119047619 8.95871559633028  9.56845238095238 7.94507174782404  10.9821428571429 7.0772759350741  C 12.3958333333333 6.20948012232416  13.9136904761905 5.51305575158786  15.5357142857143 4.98800282286521  C 16.3541666666667 4.72547635850388  17.4330357142857 4.53952011291461  18.7723214285714 4.43013408609739  C 20.1116071428571 4.32074805928017  21.4471726190476 4.25511644318984  22.7790178571429 4.2332392378264  C 24.1108630952381 4.21136203246295  25.4389880952381 4.16760762173606  26.7633928571429 4.10197600564573  C 28.0877976190476 4.0363443895554  29.3043154761905 3.86132674664785  30.4129464285714 3.57692307692308  C 31.5215773809524 3.29251940719831  32.3660714285714 2.88049870618678  32.9464285714286 2.3408609738885  L 33.6049107142857 1.6954834156669  C 33.6049107142857 1.6954834156669  33.8244047619048 1.49129616560809  34.2633928571429 1.08292166549047  C 34.702380952381 0.674547165372853  34.9032738095238 0.528699129616556  34.8660714285714 0.645377558221596  C 34.8288690476191 0.762055986826629  35.1004464285714 0.645377558221596  35.6808035714286 0.295342272406493  C 36.2611607142857 -0.0546930134086123  36.5848214285714 -0.0875088214537756  36.6517857142857 0.196894848270993  C 37.2321428571429 0.196894848270993  37.7566964285714 0.532345330510465  38.2254464285714 1.20324629498941  C 38.6941964285714 1.87414725946836  39.0476190476191 2.6908962597036  39.2857142857143 3.65349329569513  C 39.5238095238095 4.61609033168666  39.702380952381 5.52034815337567  39.8214285714286 6.36626676076217  Z " fill-rule="nonzero" fill="#000000" stroke="none" transform="matrix(1 0 0 1 2288 232 )" />
  </g>
</svg>