<?xml version="1.0" encoding="utf-8"?>
<svg version="1.1" xmlns:xlink="http://www.w3.org/1999/xlink" width="63px" height="62px" xmlns="http://www.w3.org/2000/svg">
  <g transform="matrix(1 0 0 1 -2427 -218 )">
    <path d="M 2458.5 218  C 2476.14 218  2490 231.64  2490 249  C 2490 266.36  2476.14 280  2458.5 280  C 2440.86 280  2427 266.36  2427 249  C 2427 231.64  2440.86 218  2458.5 218  Z " fill-rule="nonzero" fill="#ffffff" stroke="none" />
    <path d="M 2458.5 218.5  C 2475.86 218.5  2489.5 231.92  2489.5 249  C 2489.5 266.08  2475.86 279.5  2458.5 279.5  C 2441.14 279.5  2427.5 266.08  2427.5 249  C 2427.5 231.92  2441.14 218.5  2458.5 218.5  Z " stroke-width="1" stroke="#797979" fill="none" />
  </g>
</svg>