<?xml version="1.0" encoding="utf-8"?>
<svg version="1.1" xmlns:xlink="http://www.w3.org/1999/xlink" width="30px" height="30px" xmlns="http://www.w3.org/2000/svg">
  <g transform="matrix(1 0 0 1 -3049 -634 )">
    <path d="M 3064 634  C 3072.4 634  3079 640.6  3079 649  C 3079 657.4  3072.4 664  3064 664  C 3055.6 664  3049 657.4  3049 649  C 3049 640.6  3055.6 634  3064 634  Z " fill-rule="nonzero" fill="#ffffff" stroke="none" />
    <path d="M 3064 634.5  C 3072.12 634.5  3078.5 640.88  3078.5 649  C 3078.5 657.12  3072.12 663.5  3064 663.5  C 3055.88 663.5  3049.5 657.12  3049.5 649  C 3049.5 640.88  3055.88 634.5  3064 634.5  Z " stroke-width="1" stroke="#797979" fill="none" />
  </g>
</svg>