<?xml version="1.0" encoding="utf-8"?>
<svg version="1.1" xmlns:xlink="http://www.w3.org/1999/xlink" width="15px" height="16px" xmlns="http://www.w3.org/2000/svg">
  <g transform="matrix(1 0 0 1 -3057 -641 )">
    <path d="M 10.6203263086336 14.0260416666667  C 11.5006798096533 13.5989583333333  12.2501699524133 13.0034722222222  12.8687967369137 12.2395833333333  C 12.5016995241332 12.3020833333333  12.1278042148199 12.3333333333333  11.7471108089735 12.3333333333333  C 10.5098572399728 12.3333333333333  9.36437797416723 12.0208333333333  8.31067301155676 11.3958333333333  C 7.2569680489463 10.7708333333333  6.42420122365738 9.92013888888889  5.81237253569001 8.84375  C 5.20054384772264 7.76736111111111  4.89462950373895 6.59722222222222  4.89462950373895 5.33333333333333  C 4.89462950373895 4  5.24813052345343 2.76041666666667  5.95513256288239 1.61458333333333  C 4.58871515975527 2.03125  3.47212780421482 2.82638888888889  2.60537049626105 4  C 1.73861318830727 5.17361111111111  1.30523453433039 6.50694444444444  1.30523453433039 8  C 1.30523453433039 8.90277777777778  1.47858599592114 9.765625  1.82528891910265 10.5885416666667  C 2.17199184228416 11.4114583333333  2.63596193065942 12.1197916666667  3.21719918422842 12.7135416666667  C 3.79843643779742 13.3072916666667  4.49184228416043 13.78125  5.29741672331747 14.1354166666667  C 6.10299116247451 14.4895833333333  6.94765465669613 14.6666666666667  7.83140720598233 14.6666666666667  C 8.81033310673012 14.6666666666667  9.73997280761387 14.453125  10.6203263086336 14.0260416666667  Z M 14.9847042828008 10.9583333333333  C 15.0084976206662 11.0972222222222  14.993201903467 11.2291666666667  14.9388171312033 11.3541666666667  C 14.299796057104 12.7638888888889  13.3361658735554 13.890625  12.0479265805574 14.734375  C 10.7596872875595 15.578125  9.35418082936778 16  7.83140720598233 16  C 6.77090414683889 16  5.75798776342624 15.7881944444444  4.79265805574439 15.3645833333333  C 3.82732834806254 14.9409722222222  2.99456152277362 14.3715277777778  2.29435757987763 13.65625  C 1.59415363698165 12.9409722222222  1.03670972127804 12.0902777777778  0.622025832766825 11.1041666666667  C 0.207341944255609 10.1180555555556  0 9.08333333333333  0 8  C 0 6.9375  0.19544527532291 5.921875  0.586335825968729 4.953125  C 0.977226376614548 3.984375  1.50747790618627 3.14583333333333  2.17709041468389 2.4375  C 2.84670292318151 1.72916666666667  3.64717878993882 1.15798611111111  4.57851801495581 0.723958333333334  C 5.50985723997281 0.289930555555555  6.49558123725357 0.0520833333333339  7.5356900067981 0.0104166666666661  C 7.83480625424881 -0.00347222222222499  8.04214819850442 0.131944444444443  8.15771583956492 0.416666666666666  C 8.28008157715839 0.701388888888888  8.22909585316111 0.951388888888888  8.00475866757308 1.16666666666667  C 7.42012236573759 1.70833333333333  6.97314751869477 2.33854166666667  6.66383412644459 3.05729166666667  C 6.35452073419443 3.77604166666667  6.19986403806934 4.53472222222222  6.19986403806934 5.33333333333333  C 6.19986403806934 6.36111111111111  6.44799456152277 7.30902777777778  6.94425560842964 8.17708333333333  C 7.44051665533651 9.04513888888889  8.11352821210061 9.73263888888889  8.96329027872196 10.2395833333333  C 9.81305234534331 10.7465277777778  10.7409925220938 11  11.7471108089735 11  C 12.549286199864 11  13.3242692046227 10.8229166666667  14.0720598232495 10.46875  C 14.3507817811013 10.34375  14.5955132562882 10.3888888888889  14.8062542488103 10.6041666666667  C 14.9014276002719 10.7013888888889  14.9609109449354 10.8194444444444  14.9847042828008 10.9583333333333  Z " fill-rule="nonzero" fill="#000000" stroke="none" transform="matrix(1 0 0 1 3057 641 )" />
  </g>
</svg>