<?xml version="1.0" encoding="utf-8"?>
<svg version="1.1" xmlns:xlink="http://www.w3.org/1999/xlink" width="26px" height="25px" xmlns="http://www.w3.org/2000/svg">
  <g transform="matrix(1 0 0 1 -3879 -164 )">
    <path d="M 20.26171875 14.2740885416667  C 20.4761284722222 14.0679253472222  20.5833333333333 13.8237847222222  20.5833333333333 13.5416666666667  L 20.5833333333333 11.4583333333333  C 20.5833333333333 11.1762152777778  20.4761284722222 10.9320746527778  20.26171875 10.7259114583333  C 20.0473090277778 10.5197482638889  19.7934027777778 10.4166666666667  19.5 10.4166666666667  L 15.1666666666667 10.4166666666667  L 15.1666666666667 6.25  C 15.1666666666667 5.96788194444444  15.0594618055556 5.72374131944444  14.8450520833333 5.517578125  C 14.6306423611111 5.31141493055556  14.3767361111111 5.20833333333333  14.0833333333333 5.20833333333333  L 11.9166666666667 5.20833333333333  C 11.6232638888889 5.20833333333333  11.3693576388889 5.31141493055556  11.1549479166667 5.517578125  C 10.9405381944444 5.72374131944444  10.8333333333333 5.96788194444444  10.8333333333333 6.25  L 10.8333333333333 10.4166666666667  L 6.5 10.4166666666667  C 6.20659722222222 10.4166666666667  5.95269097222222 10.5197482638889  5.73828125 10.7259114583333  C 5.52387152777778 10.9320746527778  5.41666666666667 11.1762152777778  5.41666666666667 11.4583333333333  L 5.41666666666667 13.5416666666667  C 5.41666666666667 13.8237847222222  5.52387152777778 14.0679253472222  5.73828125 14.2740885416667  C 5.95269097222222 14.4802517361111  6.20659722222222 14.5833333333333  6.5 14.5833333333333  L 10.8333333333333 14.5833333333333  L 10.8333333333333 18.75  C 10.8333333333333 19.0321180555556  10.9405381944444 19.2762586805556  11.1549479166667 19.482421875  C 11.3693576388889 19.6885850694444  11.6232638888889 19.7916666666667  11.9166666666667 19.7916666666667  L 14.0833333333333 19.7916666666667  C 14.3767361111111 19.7916666666667  14.6306423611111 19.6885850694444  14.8450520833333 19.482421875  C 15.0594618055556 19.2762586805556  15.1666666666667 19.0321180555556  15.1666666666667 18.75  L 15.1666666666667 14.5833333333333  L 19.5 14.5833333333333  C 19.7934027777778 14.5833333333333  20.0473090277778 14.4802517361111  20.26171875 14.2740885416667  Z M 24.2565104166667 6.2255859375  C 25.4188368055556 8.14073350694444  26 10.2322048611111  26 12.5  C 26 14.7677951388889  25.4188368055556 16.8592664930556  24.2565104166667 18.7744140625  C 23.0941840277778 20.6895616319444  21.5171440972222 22.2059461805556  19.525390625 23.3235677083333  C 17.5336371527778 24.4411892361111  15.3585069444444 25  13 25  C 10.6414930555556 25  8.46636284722222 24.4411892361111  6.474609375 23.3235677083333  C 4.48285590277778 22.2059461805556  2.90581597222222 20.6895616319444  1.74348958333333 18.7744140625  C 0.581163194444444 16.8592664930556  0 14.7677951388889  0 12.5  C 0 10.2322048611111  0.581163194444444 8.14073350694444  1.74348958333333 6.2255859375  C 2.90581597222222 4.31043836805556  4.48285590277778 2.79405381944444  6.474609375 1.67643229166667  C 8.46636284722222 0.558810763888887  10.6414930555556 0  13 0  C 15.3585069444444 0  17.5336371527778 0.558810763888887  19.525390625 1.67643229166667  C 21.5171440972222 2.79405381944444  23.0941840277778 4.31043836805556  24.2565104166667 6.2255859375  Z " fill-rule="nonzero" fill="#000000" stroke="none" transform="matrix(1 0 0 1 3879 164 )" />
  </g>
</svg>