<?xml version="1.0" encoding="utf-8"?>
<svg version="1.1" xmlns:xlink="http://www.w3.org/1999/xlink" width="20px" height="27px" xmlns="http://www.w3.org/2000/svg">
  <g transform="matrix(1 0 0 1 -2371 -1440 )">
    <path d="M 19.7526041666667 0.333984374999999  C 19.9175347222222 0.556640624999996  20 0.820312499999996  20 1.125  L 20 25.875  C 20 26.1796875  19.9175347222222 26.443359375  19.7526041666667 26.666015625  C 19.5876736111111 26.888671875  19.3923611111111 27  19.1666666666667 27  L 12.5 27  C 12.2743055555556 27  12.0789930555556 26.888671875  11.9140625 26.666015625  C 11.7491319444444 26.443359375  11.6666666666667 26.1796875  11.6666666666667 25.875  L 11.6666666666667 1.125  C 11.6666666666667 0.820312499999996  11.7491319444444 0.556640624999996  11.9140625 0.333984374999999  C 12.0789930555556 0.111328124999999  12.2743055555556 0  12.5 0  L 19.1666666666667 0  C 19.3923611111111 0  19.5876736111111 0.111328124999999  19.7526041666667 0.333984374999999  Z M 8.0859375 0.333984374999999  C 8.25086805555556 0.556640624999996  8.33333333333333 0.820312499999996  8.33333333333333 1.125  L 8.33333333333333 25.875  C 8.33333333333333 26.1796875  8.25086805555556 26.443359375  8.0859375 26.666015625  C 7.92100694444445 26.888671875  7.72569444444445 27  7.5 27  L 0.833333333333333 27  C 0.607638888888889 27  0.412326388888889 26.888671875  0.247395833333333 26.666015625  C 0.0824652777777778 26.443359375  0 26.1796875  0 25.875  L 0 1.125  C 0 0.820312499999996  0.0824652777777778 0.556640624999996  0.247395833333333 0.333984374999999  C 0.412326388888889 0.111328124999999  0.607638888888889 0  0.833333333333333 0  L 7.5 0  C 7.72569444444445 0  7.92100694444445 0.111328124999999  8.0859375 0.333984374999999  Z " fill-rule="nonzero" fill="#000000" stroke="none" transform="matrix(1 0 0 1 2371 1440 )" />
  </g>
</svg>