<?xml version="1.0" encoding="utf-8"?>
<svg version="1.1" xmlns:xlink="http://www.w3.org/1999/xlink" width="60px" height="60px" xmlns="http://www.w3.org/2000/svg">
  <g transform="matrix(1 0 0 1 -2971 -1424 )">
    <path d="M 14.94140625 4.0234375  C 19.5377604166667 1.34114583333333  24.5572916666667 0  30 0  C 35.4427083333333 0  40.4622395833333 1.34114583333333  45.05859375 4.0234375  C 49.6549479166667 6.70572916666666  53.2942708333333 10.3450520833333  55.9765625 14.94140625  C 58.6588541666667 19.5377604166667  60 24.5572916666667  60 30  C 60 35.4427083333333  58.6588541666667 40.4622395833333  55.9765625 45.05859375  C 53.2942708333333 49.6549479166667  49.6549479166667 53.2942708333333  45.05859375 55.9765625  C 40.4622395833333 58.6588541666667  35.4427083333333 60  30 60  C 24.5572916666667 60  19.5377604166667 58.6588541666667  14.94140625 55.9765625  C 10.3450520833333 53.2942708333333  6.70572916666667 49.6549479166667  4.0234375 45.05859375  C 1.34114583333333 40.4622395833333  0 35.4427083333333  0 30  C 0 24.5572916666667  1.34114583333333 19.5377604166667  4.0234375 14.94140625  C 6.70572916666667 10.3450520833333  10.3450520833333 6.70572916666666  14.94140625 4.0234375  Z M 23.75 44.6484375  L 45 32.1484375  C 45.8333333333333 31.6796875  46.25 30.9635416666667  46.25 30  C 46.25 29.0364583333333  45.8333333333333 28.3203125  45 27.8515625  L 23.75 15.3515625  C 22.9427083333333 14.8567708333333  22.109375 14.84375  21.25 15.3125  C 20.4166666666667 15.8072916666667  20 16.5364583333333  20 17.5  L 20 42.5  C 20 43.4635416666667  20.4166666666667 44.1927083333333  21.25 44.6875  C 21.6666666666667 44.8958333333333  22.0833333333333 45  22.5 45  C 22.9427083333333 45  23.359375 44.8828125  23.75 44.6484375  Z " fill-rule="nonzero" fill="#000000" stroke="none" transform="matrix(1 0 0 1 2971 1424 )" />
  </g>
</svg>