<?xml version="1.0" encoding="utf-8"?>
<svg version="1.1" xmlns:xlink="http://www.w3.org/1999/xlink" width="60px" height="60px" xmlns="http://www.w3.org/2000/svg">
  <g transform="matrix(1 0 0 1 -3087 -1424 )">
    <path d="M 14.94140625 4.0234375  C 19.5377604166667 1.34114583333333  24.5572916666667 0  30 0  C 35.4427083333333 0  40.4622395833333 1.34114583333333  45.05859375 4.0234375  C 49.6549479166667 6.70572916666666  53.2942708333333 10.3450520833333  55.9765625 14.94140625  C 58.6588541666667 19.5377604166667  60 24.5572916666667  60 30  C 60 35.4427083333333  58.6588541666667 40.4622395833333  55.9765625 45.05859375  C 53.2942708333333 49.6549479166667  49.6549479166667 53.2942708333333  45.05859375 55.9765625  C 40.4622395833333 58.6588541666667  35.4427083333333 60  30 60  C 24.5572916666667 60  19.5377604166667 58.6588541666667  14.94140625 55.9765625  C 10.3450520833333 53.2942708333333  6.70572916666667 49.6549479166667  4.0234375 45.05859375  C 1.34114583333333 40.4622395833333  0 35.4427083333333  0 30  C 0 24.5572916666667  1.34114583333333 19.5377604166667  4.0234375 14.94140625  C 6.70572916666667 10.3450520833333  10.3450520833333 6.70572916666666  14.94140625 4.0234375  Z M 19.3359375 48.3984375  C 22.5911458333333 50.2994791666667  26.1458333333333 51.25  30 51.25  C 33.8541666666667 51.25  37.4088541666667 50.2994791666667  40.6640625 48.3984375  C 43.9192708333333 46.4973958333333  46.4973958333333 43.9192708333333  48.3984375 40.6640625  C 50.2994791666667 37.4088541666667  51.25 33.8541666666667  51.25 30  C 51.25 26.1458333333333  50.2994791666667 22.5911458333333  48.3984375 19.3359375  C 46.4973958333333 16.0807291666667  43.9192708333333 13.5026041666667  40.6640625 11.6015625  C 37.4088541666667 9.70052083333333  33.8541666666667 8.75  30 8.75  C 26.1458333333333 8.75  22.5911458333333 9.70052083333333  19.3359375 11.6015625  C 16.0807291666667 13.5026041666667  13.5026041666667 16.0807291666667  11.6015625 19.3359375  C 9.70052083333333 22.5911458333333  8.75 26.1458333333333  8.75 30  C 8.75 33.8541666666667  9.70052083333333 37.4088541666667  11.6015625 40.6640625  C 13.5026041666667 43.9192708333333  16.0807291666667 46.4973958333333  19.3359375 48.3984375  Z M 41.25 42  L 18.75 42  C 18.3854166666667 42.5  18.0859375 42.3828125  17.8515625 42.1484375  C 17.6171875 41.9140625  17.5 41.6145833333333  18 41.25  L 18 18.75  C 17.5 18.3854166666667  17.6171875 18.0859375  17.8515625 17.8515625  C 18.0859375 17.6171875  18.3854166666667 17.5  18.75 18  L 41.25 18  C 41.6145833333333 17.5  41.9140625 17.6171875  42.1484375 17.8515625  C 42.3828125 18.0859375  42.5 18.3854166666667  42 18.75  L 42 41.25  C 42.5 41.6145833333333  42.3828125 41.9140625  42.1484375 42.1484375  C 41.9140625 42.3828125  41.6145833333333 42.5  41.25 42  Z " fill-rule="nonzero" fill="#000000" stroke="none" transform="matrix(1 0 0 1 3087 1424 )" />
  </g>
</svg>