<?xml version="1.0" encoding="utf-8"?>
<svg version="1.1" xmlns:xlink="http://www.w3.org/1999/xlink" width="43px" height="33px" xmlns="http://www.w3.org/2000/svg">
  <g transform="matrix(1 0 0 1 -1810 -503 )">
    <path d="M 23.337158203125 21.617578125  C 23.904052734375 19.993359375  24.1875 18.2875  24.1875 16.5  C 24.1875 14.7125  23.904052734375 13.006640625  23.337158203125 11.382421875  C 22.770263671875 9.758203125  22.00390625 8.353125  21.0380859375 7.1671875  C 20.072265625 5.98125  18.927978515625 5.040234375  17.605224609375 4.344140625  C 16.282470703125 3.648046875  14.8932291666667 3.3  13.4375 3.3  C 11.9817708333333 3.3  10.592529296875 3.648046875  9.269775390625 4.344140625  C 7.947021484375 5.040234375  6.802734375 5.98125  5.8369140625 7.1671875  C 4.87109375 8.353125  4.104736328125 9.758203125  3.537841796875 11.382421875  C 2.970947265625 13.006640625  2.6875 14.7125  2.6875 16.5  C 2.6875 18.2875  2.970947265625 19.993359375  3.537841796875 21.617578125  C 4.104736328125 23.241796875  4.87109375 24.646875  5.8369140625 25.8328125  C 6.802734375 27.01875  7.947021484375 27.959765625  9.269775390625 28.655859375  C 10.592529296875 29.351953125  11.9817708333333 29.7  13.4375 29.7  C 14.8932291666667 29.7  16.282470703125 29.351953125  17.605224609375 28.655859375  C 18.927978515625 27.959765625  20.072265625 27.01875  21.0380859375 25.8328125  C 22.00390625 24.646875  22.770263671875 23.241796875  23.337158203125 21.617578125  Z M 39.462158203125 21.617578125  C 40.029052734375 19.993359375  40.3125 18.2875  40.3125 16.5  C 40.3125 14.7125  40.029052734375 13.006640625  39.462158203125 11.382421875  C 38.895263671875 9.758203125  38.12890625 8.353125  37.1630859375 7.1671875  C 36.197265625 5.98125  35.052978515625 5.040234375  33.730224609375 4.344140625  C 32.407470703125 3.648046875  31.0182291666667 3.3  29.5625 3.3  L 21.4580078125 3.3  C 23.1236979166667 4.846875  24.4429524739583 6.771875  25.415771484375 9.075  C 26.3885904947917 11.378125  26.875 13.853125  26.875 16.5  C 26.875 19.146875  26.3885904947917 21.621875  25.415771484375 23.925  C 24.4429524739583 26.228125  23.1236979166667 28.153125  21.4580078125 29.7  L 29.5625 29.7  C 31.0182291666667 29.7  32.407470703125 29.351953125  33.730224609375 28.655859375  C 35.052978515625 27.959765625  36.197265625 27.01875  37.1630859375 25.8328125  C 38.12890625 24.646875  38.895263671875 23.241796875  39.462158203125 21.617578125  Z M 41.92919921875 10.093359375  C 42.64306640625 12.130078125  43 14.265625  43 16.5  C 43 18.734375  42.64306640625 20.869921875  41.92919921875 22.906640625  C 41.21533203125 24.943359375  40.260009765625 26.696484375  39.063232421875 28.166015625  C 37.866455078125 29.635546875  36.438720703125 30.80859375  34.780029296875 31.68515625  C 33.121337890625 32.56171875  31.3821614583333 33  29.5625 33  L 13.4375 33  C 11.6178385416667 33  9.878662109375 32.56171875  8.219970703125 31.68515625  C 6.561279296875 30.80859375  5.133544921875 29.635546875  3.936767578125 28.166015625  C 2.739990234375 26.696484375  1.78466796875 24.943359375  1.07080078125 22.906640625  C 0.35693359375 20.869921875  0 18.734375  0 16.5  C 0 14.265625  0.35693359375 12.130078125  1.07080078125 10.093359375  C 1.78466796875 8.056640625  2.739990234375 6.303515625  3.936767578125 4.833984375  C 5.133544921875 3.364453125  6.561279296875 2.19140625  8.219970703125 1.31484375  C 9.878662109375 0.438281250000001  11.6178385416667 0  13.4375 0  L 29.5625 0  C 31.3821614583333 0  33.121337890625 0.438281250000001  34.780029296875 1.31484375  C 36.438720703125 2.19140625  37.866455078125 3.364453125  39.063232421875 4.833984375  C 40.260009765625 6.303515625  41.21533203125 8.056640625  41.92919921875 10.093359375  Z " fill-rule="nonzero" fill="#000000" stroke="none" transform="matrix(1 0 0 1 1810 503 )" />
  </g>
</svg>