<?xml version="1.0" encoding="utf-8"?>
<svg version="1.1" xmlns:xlink="http://www.w3.org/1999/xlink" width="38px" height="20px" xmlns="http://www.w3.org/2000/svg">
  <g transform="matrix(1 0 0 1 -391 -514 )">
    <path d="M 0.9462890625 13.8828125  C 0.3154296875 12.6484375  0 11.3541666666667  0 10  C 0 8.64583333333333  0.3154296875 7.3515625  0.9462890625 6.1171875  C 1.5771484375 4.8828125  2.42138671875 3.8203125  3.47900390625 2.9296875  C 4.53662109375 2.0390625  5.79833984375 1.328125  7.26416015625 0.796874999999999  C 8.72998046875 0.265625  10.2669270833333 0  11.875 0  L 26.125 0  C 27.7330729166667 0  29.27001953125 0.265625  30.73583984375 0.796874999999999  C 32.20166015625 1.328125  33.46337890625 2.0390625  34.52099609375 2.9296875  C 35.57861328125 3.8203125  36.4228515625 4.8828125  37.0537109375 6.1171875  C 37.6845703125 7.3515625  38 8.64583333333333  38 10  C 38 11.3541666666667  37.6845703125 12.6484375  37.0537109375 13.8828125  C 36.4228515625 15.1171875  35.57861328125 16.1796875  34.52099609375 17.0703125  C 33.46337890625 17.9609375  32.20166015625 18.671875  30.73583984375 19.203125  C 29.27001953125 19.734375  27.7330729166667 20  26.125 20  L 11.875 20  C 10.2669270833333 20  8.72998046875 19.734375  7.26416015625 19.203125  C 5.79833984375 18.671875  4.53662109375 17.9609375  3.47900390625 17.0703125  C 2.42138671875 16.1796875  1.5771484375 15.1171875  0.9462890625 13.8828125  Z M 22.44189453125 17.3671875  C 23.61083984375 17.7890625  24.8385416666667 18  26.125 18  C 27.4114583333333 18  28.63916015625 17.7890625  29.80810546875 17.3671875  C 30.97705078125 16.9453125  31.98828125 16.375  32.841796875 15.65625  C 33.6953125 14.9375  34.37255859375 14.0859375  34.87353515625 13.1015625  C 35.37451171875 12.1171875  35.625 11.0833333333333  35.625 10  C 35.625 8.91666666666667  35.37451171875 7.8828125  34.87353515625 6.8984375  C 34.37255859375 5.9140625  33.6953125 5.0625  32.841796875 4.34375  C 31.98828125 3.625  30.97705078125 3.0546875  29.80810546875 2.6328125  C 28.63916015625 2.2109375  27.4114583333333 2  26.125 2  C 24.8385416666667 2  23.61083984375 2.2109375  22.44189453125 2.6328125  C 21.27294921875 3.0546875  20.26171875 3.625  19.408203125 4.34375  C 18.5546875 5.0625  17.87744140625 5.9140625  17.37646484375 6.8984375  C 16.87548828125 7.8828125  16.625 8.91666666666667  16.625 10  C 16.625 11.0833333333333  16.87548828125 12.1171875  17.37646484375 13.1015625  C 17.87744140625 14.0859375  18.5546875 14.9375  19.408203125 15.65625  C 20.26171875 16.375  21.27294921875 16.9453125  22.44189453125 17.3671875  Z " fill-rule="nonzero" fill="#000000" stroke="none" transform="matrix(1 0 0 1 391 514 )" />
  </g>
</svg>