<?xml version="1.0" encoding="utf-8"?>
<svg version="1.1" xmlns:xlink="http://www.w3.org/1999/xlink" width="12px" height="12px" viewBox="1814 505  12 12" xmlns="http://www.w3.org/2000/svg">
  <path d="M 1820 505  C 1823.36 505  1826 507.64  1826 511  C 1826 514.36  1823.36 517  1820 517  C 1816.64 517  1814 514.36  1814 511  C 1814 507.64  1816.64 505  1820 505  Z " fill-rule="nonzero" fill="#ffffff" stroke="none" />
  <path d="M 1820 505.5  C 1823.08 505.5  1825.5 507.92  1825.5 511  C 1825.5 514.08  1823.08 516.5  1820 516.5  C 1816.92 516.5  1814.5 514.08  1814.5 511  C 1814.5 507.92  1816.92 505.5  1820 505.5  Z " stroke-width="1" stroke="#797979" fill="none" />
  <path d="M 1820 514  C 1818.32 514  1817 512.68  1817 511  C 1817 509.32  1818.32 508  1820 508  C 1821.68 508  1823 509.32  1823 511  C 1823 512.68  1821.68 514  1820 514  " fill-rule="nonzero" fill="#797979" stroke="none" />
</svg>