<?xml version="1.0" encoding="utf-8"?>
<svg version="1.1" xmlns:xlink="http://www.w3.org/1999/xlink" width="12px" height="12px" viewBox="1814 544  12 12" xmlns="http://www.w3.org/2000/svg">
  <path d="M 1820 544  C 1823.36 544  1826 546.64  1826 550  C 1826 553.36  1823.36 556  1820 556  C 1816.64 556  1814 553.36  1814 550  C 1814 546.64  1816.64 544  1820 544  Z " fill-rule="nonzero" fill="#f0f0f0" stroke="none" />
  <path d="M 1820 544.5  C 1823.08 544.5  1825.5 546.92  1825.5 550  C 1825.5 553.08  1823.08 555.5  1820 555.5  C 1816.92 555.5  1814.5 553.08  1814.5 550  C 1814.5 546.92  1816.92 544.5  1820 544.5  Z " stroke-width="1" stroke="#797979" fill="none" />
  <path d="M 1820 553  C 1818.32 553  1817 551.68  1817 550  C 1817 548.32  1818.32 547  1820 547  C 1821.68 547  1823 548.32  1823 550  C 1823 551.68  1821.68 553  1820 553  " fill-rule="nonzero" fill="#797979" stroke="none" />
</svg>