<?xml version="1.0" encoding="utf-8"?>
<svg version="1.1" xmlns:xlink="http://www.w3.org/1999/xlink" width="12px" height="12px" viewBox="1814 622  12 12" xmlns="http://www.w3.org/2000/svg">
  <path d="M 1820 622  C 1823.36 622  1826 624.64  1826 628  C 1826 631.36  1823.36 634  1820 634  C 1816.64 634  1814 631.36  1814 628  C 1814 624.64  1816.64 622  1820 622  Z " fill-rule="nonzero" fill="#f0f0f0" stroke="none" />
  <path d="M 1820 622.5  C 1823.08 622.5  1825.5 624.92  1825.5 628  C 1825.5 631.08  1823.08 633.5  1820 633.5  C 1816.92 633.5  1814.5 631.08  1814.5 628  C 1814.5 624.92  1816.92 622.5  1820 622.5  Z " stroke-width="1" stroke="#797979" fill="none" />
  <path d="M 1820 631  C 1818.32 631  1817 629.68  1817 628  C 1817 626.32  1818.32 625  1820 625  C 1821.68 625  1823 626.32  1823 628  C 1823 629.68  1821.68 631  1820 631  " fill-rule="nonzero" fill="#797979" stroke="none" />
</svg>