<?xml version="1.0" encoding="utf-8"?>
<svg version="1.1" xmlns:xlink="http://www.w3.org/1999/xlink" width="45px" height="24px" xmlns="http://www.w3.org/2000/svg">
  <g transform="matrix(1 0 0 1 -407 -375 )">
    <path d="M 24.422607421875 15.721875  C 25.015869140625 14.540625  25.3125 13.3  25.3125 12  C 25.3125 10.7  25.015869140625 9.459375  24.422607421875 8.278125  C 23.829345703125 7.096875  23.02734375 6.075  22.0166015625 5.2125  C 21.005859375 4.35  19.808349609375 3.665625  18.424072265625 3.159375  C 17.039794921875 2.653125  15.5859375 2.4  14.0625 2.4  C 12.5390625 2.4  11.085205078125 2.653125  9.700927734375 3.159375  C 8.316650390625 3.665625  7.119140625 4.35  6.1083984375 5.2125  C 5.09765625 6.075  4.295654296875 7.096875  3.702392578125 8.278125  C 3.109130859375 9.459375  2.8125 10.7  2.8125 12  C 2.8125 13.3  3.109130859375 14.540625  3.702392578125 15.721875  C 4.295654296875 16.903125  5.09765625 17.925  6.1083984375 18.7875  C 7.119140625 19.65  8.316650390625 20.334375  9.700927734375 20.840625  C 11.085205078125 21.346875  12.5390625 21.6  14.0625 21.6  C 15.5859375 21.6  17.039794921875 21.346875  18.424072265625 20.840625  C 19.808349609375 20.334375  21.005859375 19.65  22.0166015625 18.7875  C 23.02734375 17.925  23.829345703125 16.903125  24.422607421875 15.721875  Z M 41.297607421875 15.721875  C 41.890869140625 14.540625  42.1875 13.3  42.1875 12  C 42.1875 10.7  41.890869140625 9.459375  41.297607421875 8.278125  C 40.704345703125 7.096875  39.90234375 6.075  38.8916015625 5.2125  C 37.880859375 4.35  36.683349609375 3.665625  35.299072265625 3.159375  C 33.914794921875 2.653125  32.4609375 2.4  30.9375 2.4  L 22.4560546875 2.4  C 24.19921875 3.525  25.579833984375 4.925  26.597900390625 6.6  C 27.615966796875 8.275  28.125 10.075  28.125 12  C 28.125 13.925  27.615966796875 15.725  26.597900390625 17.4  C 25.579833984375 19.075  24.19921875 20.475  22.4560546875 21.6  L 30.9375 21.6  C 32.4609375 21.6  33.914794921875 21.346875  35.299072265625 20.840625  C 36.683349609375 20.334375  37.880859375 19.65  38.8916015625 18.7875  C 39.90234375 17.925  40.704345703125 16.903125  41.297607421875 15.721875  Z M 43.87939453125 7.340625  C 44.62646484375 8.821875  45 10.375  45 12  C 45 13.625  44.62646484375 15.178125  43.87939453125 16.659375  C 43.13232421875 18.140625  42.132568359375 19.415625  40.880126953125 20.484375  C 39.627685546875 21.553125  38.133544921875 22.40625  36.397705078125 23.04375  C 34.661865234375 23.68125  32.841796875 24  30.9375 24  L 14.0625 24  C 12.158203125 24  10.338134765625 23.68125  8.602294921875 23.04375  C 6.866455078125 22.40625  5.372314453125 21.553125  4.119873046875 20.484375  C 2.867431640625 19.415625  1.86767578125 18.140625  1.12060546875 16.659375  C 0.37353515625 15.178125  0 13.625  0 12  C 0 10.375  0.37353515625 8.821875  1.12060546875 7.340625  C 1.86767578125 5.859375  2.867431640625 4.584375  4.119873046875 3.515625  C 5.372314453125 2.446875  6.866455078125 1.59375  8.602294921875 0.956249999999999  C 10.338134765625 0.318750000000001  12.158203125 0  14.0625 0  L 30.9375 0  C 32.841796875 0  34.661865234375 0.318750000000001  36.397705078125 0.956249999999999  C 38.133544921875 1.59375  39.627685546875 2.446875  40.880126953125 3.515625  C 42.132568359375 4.584375  43.13232421875 5.859375  43.87939453125 7.340625  Z " fill-rule="nonzero" fill="#000000" stroke="none" transform="matrix(1 0 0 1 407 375 )" />
  </g>
</svg>