<?xml version="1.0" encoding="utf-8"?>
<svg version="1.1" xmlns:xlink="http://www.w3.org/1999/xlink" width="45px" height="24px" xmlns="http://www.w3.org/2000/svg">
  <g transform="matrix(1 0 0 1 -1243 -376 )">
    <path d="M 1.12060546875 16.659375  C 0.37353515625 15.178125  0 13.625  0 12  C 0 10.375  0.37353515625 8.821875  1.12060546875 7.340625  C 1.86767578125 5.859375  2.867431640625 4.584375  4.119873046875 3.515625  C 5.372314453125 2.446875  6.866455078125 1.59375  8.602294921875 0.956249999999999  C 10.338134765625 0.318750000000001  12.158203125 0  14.0625 0  L 30.9375 0  C 32.841796875 0  34.661865234375 0.318750000000001  36.397705078125 0.956249999999999  C 38.133544921875 1.59375  39.627685546875 2.446875  40.880126953125 3.515625  C 42.132568359375 4.584375  43.13232421875 5.859375  43.87939453125 7.340625  C 44.62646484375 8.821875  45 10.375  45 12  C 45 13.625  44.62646484375 15.178125  43.87939453125 16.659375  C 43.13232421875 18.140625  42.132568359375 19.415625  40.880126953125 20.484375  C 39.627685546875 21.553125  38.133544921875 22.40625  36.397705078125 23.04375  C 34.661865234375 23.68125  32.841796875 24  30.9375 24  L 14.0625 24  C 12.158203125 24  10.338134765625 23.68125  8.602294921875 23.04375  C 6.866455078125 22.40625  5.372314453125 21.553125  4.119873046875 20.484375  C 2.867431640625 19.415625  1.86767578125 18.140625  1.12060546875 16.659375  Z M 26.575927734375 20.840625  C 27.960205078125 21.346875  29.4140625 21.6  30.9375 21.6  C 32.4609375 21.6  33.914794921875 21.346875  35.299072265625 20.840625  C 36.683349609375 20.334375  37.880859375 19.65  38.8916015625 18.7875  C 39.90234375 17.925  40.704345703125 16.903125  41.297607421875 15.721875  C 41.890869140625 14.540625  42.1875 13.3  42.1875 12  C 42.1875 10.7  41.890869140625 9.459375  41.297607421875 8.278125  C 40.704345703125 7.096875  39.90234375 6.075  38.8916015625 5.2125  C 37.880859375 4.35  36.683349609375 3.665625  35.299072265625 3.159375  C 33.914794921875 2.653125  32.4609375 2.4  30.9375 2.4  C 29.4140625 2.4  27.960205078125 2.653125  26.575927734375 3.159375  C 25.191650390625 3.665625  23.994140625 4.35  22.9833984375 5.2125  C 21.97265625 6.075  21.170654296875 7.096875  20.577392578125 8.278125  C 19.984130859375 9.459375  19.6875 10.7  19.6875 12  C 19.6875 13.3  19.984130859375 14.540625  20.577392578125 15.721875  C 21.170654296875 16.903125  21.97265625 17.925  22.9833984375 18.7875  C 23.994140625 19.65  25.191650390625 20.334375  26.575927734375 20.840625  Z " fill-rule="nonzero" fill="#000000" stroke="none" transform="matrix(1 0 0 1 1243 376 )" />
  </g>
</svg>