<?xml version="1.0" encoding="utf-8"?>
<svg version="1.1" xmlns:xlink="http://www.w3.org/1999/xlink" width="12px" height="12px" viewBox="418 319  12 12" xmlns="http://www.w3.org/2000/svg">
  <path d="M 424 319  C 427.36 319  430 321.64  430 325  C 430 328.36  427.36 331  424 331  C 420.64 331  418 328.36  418 325  C 418 321.64  420.64 319  424 319  Z " fill-rule="nonzero" fill="#f0f0f0" stroke="none" />
  <path d="M 424 319.5  C 427.08 319.5  429.5 321.92  429.5 325  C 429.5 328.08  427.08 330.5  424 330.5  C 420.92 330.5  418.5 328.08  418.5 325  C 418.5 321.92  420.92 319.5  424 319.5  Z " stroke-width="1" stroke="#797979" fill="none" />
  <path d="M 424 328  C 422.32 328  421 326.68  421 325  C 421 323.32  422.32 322  424 322  C 425.68 322  427 323.32  427 325  C 427 326.68  425.68 328  424 328  " fill-rule="nonzero" fill="#797979" stroke="none" />
</svg>