<?xml version="1.0" encoding="utf-8"?>
<svg version="1.1" xmlns:xlink="http://www.w3.org/1999/xlink" width="12px" height="12px" viewBox="418 358  12 12" xmlns="http://www.w3.org/2000/svg">
  <path d="M 424 358  C 427.36 358  430 360.64  430 364  C 430 367.36  427.36 370  424 370  C 420.64 370  418 367.36  418 364  C 418 360.64  420.64 358  424 358  Z " fill-rule="nonzero" fill="#f0f0f0" stroke="none" />
  <path d="M 424 358.5  C 427.08 358.5  429.5 360.92  429.5 364  C 429.5 367.08  427.08 369.5  424 369.5  C 420.92 369.5  418.5 367.08  418.5 364  C 418.5 360.92  420.92 358.5  424 358.5  Z " stroke-width="1" stroke="#797979" fill="none" />
  <path d="M 424 367  C 422.32 367  421 365.68  421 364  C 421 362.32  422.32 361  424 361  C 425.68 361  427 362.32  427 364  C 427 365.68  425.68 367  424 367  " fill-rule="nonzero" fill="#797979" stroke="none" />
</svg>