<?xml version="1.0" encoding="utf-8"?>
<svg version="1.1" xmlns:xlink="http://www.w3.org/1999/xlink" width="12px" height="12px" viewBox="418 475  12 12" xmlns="http://www.w3.org/2000/svg">
  <path d="M 424 475  C 427.36 475  430 477.64  430 481  C 430 484.36  427.36 487  424 487  C 420.64 487  418 484.36  418 481  C 418 477.64  420.64 475  424 475  Z " fill-rule="nonzero" fill="#ffffff" stroke="none" />
  <path d="M 424 475.5  C 427.08 475.5  429.5 477.92  429.5 481  C 429.5 484.08  427.08 486.5  424 486.5  C 420.92 486.5  418.5 484.08  418.5 481  C 418.5 477.92  420.92 475.5  424 475.5  Z " stroke-width="1" stroke="#797979" fill="none" />
  <path d="M 424 484  C 422.32 484  421 482.68  421 481  C 421 479.32  422.32 478  424 478  C 425.68 478  427 479.32  427 481  C 427 482.68  425.68 484  424 484  " fill-rule="nonzero" fill="#797979" stroke="none" />
</svg>