<?xml version="1.0" encoding="utf-8"?>
<svg version="1.1" xmlns:xlink="http://www.w3.org/1999/xlink" width="12px" height="12px" viewBox="418 553  12 12" xmlns="http://www.w3.org/2000/svg">
  <path d="M 424 553  C 427.36 553  430 555.64  430 559  C 430 562.36  427.36 565  424 565  C 420.64 565  418 562.36  418 559  C 418 555.64  420.64 553  424 553  Z " fill-rule="nonzero" fill="#f0f0f0" stroke="none" />
  <path d="M 424 553.5  C 427.08 553.5  429.5 555.92  429.5 559  C 429.5 562.08  427.08 564.5  424 564.5  C 420.92 564.5  418.5 562.08  418.5 559  C 418.5 555.92  420.92 553.5  424 553.5  Z " stroke-width="1" stroke="#797979" fill="none" />
  <path d="M 424 562  C 422.32 562  421 560.68  421 559  C 421 557.32  422.32 556  424 556  C 425.68 556  427 557.32  427 559  C 427 560.68  425.68 562  424 562  " fill-rule="nonzero" fill="#797979" stroke="none" />
</svg>