<?xml version="1.0" encoding="utf-8"?>
<svg version="1.1" xmlns:xlink="http://www.w3.org/1999/xlink" width="12px" height="12px" viewBox="418 592  12 12" xmlns="http://www.w3.org/2000/svg">
  <path d="M 424 592  C 427.36 592  430 594.64  430 598  C 430 601.36  427.36 604  424 604  C 420.64 604  418 601.36  418 598  C 418 594.64  420.64 592  424 592  Z " fill-rule="nonzero" fill="#ffffff" stroke="none" />
  <path d="M 424 592.5  C 427.08 592.5  429.5 594.92  429.5 598  C 429.5 601.08  427.08 603.5  424 603.5  C 420.92 603.5  418.5 601.08  418.5 598  C 418.5 594.92  420.92 592.5  424 592.5  Z " stroke-width="1" stroke="#797979" fill="none" />
  <path d="M 424 601  C 422.32 601  421 599.68  421 598  C 421 596.32  422.32 595  424 595  C 425.68 595  427 596.32  427 598  C 427 599.68  425.68 601  424 601  " fill-rule="nonzero" fill="#797979" stroke="none" />
</svg>