<?xml version="1.0" encoding="utf-8"?>
<svg version="1.1" xmlns:xlink="http://www.w3.org/1999/xlink" width="12px" height="12px" viewBox="418 631  12 12" xmlns="http://www.w3.org/2000/svg">
  <path d="M 424 631  C 427.36 631  430 633.64  430 637  C 430 640.36  427.36 643  424 643  C 420.64 643  418 640.36  418 637  C 418 633.64  420.64 631  424 631  Z " fill-rule="nonzero" fill="#ffffff" stroke="none" />
  <path d="M 424 631.5  C 427.08 631.5  429.5 633.92  429.5 637  C 429.5 640.08  427.08 642.5  424 642.5  C 420.92 642.5  418.5 640.08  418.5 637  C 418.5 633.92  420.92 631.5  424 631.5  Z " stroke-width="1" stroke="#797979" fill="none" />
  <path d="M 424 640  C 422.32 640  421 638.68  421 637  C 421 635.32  422.32 634  424 634  C 425.68 634  427 635.32  427 637  C 427 638.68  425.68 640  424 640  " fill-rule="nonzero" fill="#797979" stroke="none" />
</svg>