<?xml version="1.0" encoding="utf-8"?>
<svg version="1.1" xmlns:xlink="http://www.w3.org/1999/xlink" width="12px" height="12px" viewBox="418 670  12 12" xmlns="http://www.w3.org/2000/svg">
  <path d="M 424 670  C 427.36 670  430 672.64  430 676  C 430 679.36  427.36 682  424 682  C 420.64 682  418 679.36  418 676  C 418 672.64  420.64 670  424 670  Z " fill-rule="nonzero" fill="#ffffff" stroke="none" />
  <path d="M 424 670.5  C 427.08 670.5  429.5 672.92  429.5 676  C 429.5 679.08  427.08 681.5  424 681.5  C 420.92 681.5  418.5 679.08  418.5 676  C 418.5 672.92  420.92 670.5  424 670.5  Z " stroke-width="1" stroke="#797979" fill="none" />
  <path d="M 424 679  C 422.32 679  421 677.68  421 676  C 421 674.32  422.32 673  424 673  C 425.68 673  427 674.32  427 676  C 427 677.68  425.68 679  424 679  " fill-rule="nonzero" fill="#797979" stroke="none" />
</svg>