<?xml version="1.0" encoding="utf-8"?>
<svg version="1.1" xmlns:xlink="http://www.w3.org/1999/xlink" width="12px" height="12px" viewBox="418 748  12 12" xmlns="http://www.w3.org/2000/svg">
  <path d="M 424 748  C 427.36 748  430 750.64  430 754  C 430 757.36  427.36 760  424 760  C 420.64 760  418 757.36  418 754  C 418 750.64  420.64 748  424 748  Z " fill-rule="nonzero" fill="#f0f0f0" stroke="none" />
  <path d="M 424 748.5  C 427.08 748.5  429.5 750.92  429.5 754  C 429.5 757.08  427.08 759.5  424 759.5  C 420.92 759.5  418.5 757.08  418.5 754  C 418.5 750.92  420.92 748.5  424 748.5  Z " stroke-width="1" stroke="#797979" fill="none" />
  <path d="M 424 757  C 422.32 757  421 755.68  421 754  C 421 752.32  422.32 751  424 751  C 425.68 751  427 752.32  427 754  C 427 755.68  425.68 757  424 757  " fill-rule="nonzero" fill="#797979" stroke="none" />
</svg>