<?xml version="1.0" encoding="utf-8"?>
<svg version="1.1" xmlns:xlink="http://www.w3.org/1999/xlink" width="50px" height="50px" xmlns="http://www.w3.org/2000/svg">
  <g transform="matrix(1 0 0 1 -383 -721 )">
    <path d="M 384 746  A 24 24 0 0 1 408 722 A 24 24 0 0 1 432 746 A 24 24 0 0 1 408 770 A 24 24 0 0 1 384 746 Z " fill-rule="nonzero" fill="#ffffff" stroke="none" fill-opacity="0" />
    <path d="M 383.5 746  A 24.5 24.5 0 0 1 408 721.5 A 24.5 24.5 0 0 1 432.5 746 A 24.5 24.5 0 0 1 408 770.5 A 24.5 24.5 0 0 1 383.5 746 Z " stroke-width="1" stroke-dasharray="3,1" stroke="#999999" fill="none" stroke-dashoffset="0.5" />
  </g>
</svg>