<?xml version="1.0" encoding="utf-8"?>
<svg version="1.1" xmlns:xlink="http://www.w3.org/1999/xlink" width="50px" height="50px" xmlns="http://www.w3.org/2000/svg">
  <g transform="matrix(1 0 0 1 -124 -721 )">
    <path d="M 125 746  A 24 24 0 0 1 149 722 A 24 24 0 0 1 173 746 A 24 24 0 0 1 149 770 A 24 24 0 0 1 125 746 Z " fill-rule="nonzero" fill="#aeaeae" stroke="none" />
    <path d="M 124.5 746  A 24.5 24.5 0 0 1 149 721.5 A 24.5 24.5 0 0 1 173.5 746 A 24.5 24.5 0 0 1 149 770.5 A 24.5 24.5 0 0 1 124.5 746 Z " stroke-width="1" stroke-dasharray="3,1" stroke="#999999" fill="none" stroke-dashoffset="0.5" />
  </g>
</svg>