<?xml version="1.0" encoding="utf-8"?>
<svg version="1.1" xmlns:xlink="http://www.w3.org/1999/xlink" width="38px" height="20px" xmlns="http://www.w3.org/2000/svg">
  <g transform="matrix(1 0 0 1 -391 -514 )">
    <path d="M 20.62353515625 13.1015625  C 21.12451171875 12.1171875  21.375 11.0833333333333  21.375 10  C 21.375 8.91666666666667  21.12451171875 7.8828125  20.62353515625 6.8984375  C 20.12255859375 5.9140625  19.4453125 5.0625  18.591796875 4.34375  C 17.73828125 3.625  16.72705078125 3.0546875  15.55810546875 2.6328125  C 14.38916015625 2.2109375  13.1614583333333 2  11.875 2  C 10.5885416666667 2  9.36083984375 2.2109375  8.19189453125 2.6328125  C 7.02294921875 3.0546875  6.01171875 3.625  5.158203125 4.34375  C 4.3046875 5.0625  3.62744140625 5.9140625  3.12646484375 6.8984375  C 2.62548828125 7.8828125  2.375 8.91666666666667  2.375 10  C 2.375 11.0833333333333  2.62548828125 12.1171875  3.12646484375 13.1015625  C 3.62744140625 14.0859375  4.3046875 14.9375  5.158203125 15.65625  C 6.01171875 16.375  7.02294921875 16.9453125  8.19189453125 17.3671875  C 9.36083984375 17.7890625  10.5885416666667 18  11.875 18  C 13.1614583333333 18  14.38916015625 17.7890625  15.55810546875 17.3671875  C 16.72705078125 16.9453125  17.73828125 16.375  18.591796875 15.65625  C 19.4453125 14.9375  20.12255859375 14.0859375  20.62353515625 13.1015625  Z M 34.87353515625 13.1015625  C 35.37451171875 12.1171875  35.625 11.0833333333333  35.625 10  C 35.625 8.91666666666667  35.37451171875 7.8828125  34.87353515625 6.8984375  C 34.37255859375 5.9140625  33.6953125 5.0625  32.841796875 4.34375  C 31.98828125 3.625  30.97705078125 3.0546875  29.80810546875 2.6328125  C 28.63916015625 2.2109375  27.4114583333333 2  26.125 2  L 18.962890625 2  C 20.4348958333333 2.9375  21.6007486979167 4.10416666666666  22.46044921875 5.5  C 23.3201497395833 6.89583333333333  23.75 8.39583333333333  23.75 10  C 23.75 11.6041666666667  23.3201497395833 13.1041666666667  22.46044921875 14.5  C 21.6007486979167 15.8958333333333  20.4348958333333 17.0625  18.962890625 18  L 26.125 18  C 27.4114583333333 18  28.63916015625 17.7890625  29.80810546875 17.3671875  C 30.97705078125 16.9453125  31.98828125 16.375  32.841796875 15.65625  C 33.6953125 14.9375  34.37255859375 14.0859375  34.87353515625 13.1015625  Z M 37.0537109375 6.1171875  C 37.6845703125 7.3515625  38 8.64583333333333  38 10  C 38 11.3541666666667  37.6845703125 12.6484375  37.0537109375 13.8828125  C 36.4228515625 15.1171875  35.57861328125 16.1796875  34.52099609375 17.0703125  C 33.46337890625 17.9609375  32.20166015625 18.671875  30.73583984375 19.203125  C 29.27001953125 19.734375  27.7330729166667 20  26.125 20  L 11.875 20  C 10.2669270833333 20  8.72998046875 19.734375  7.26416015625 19.203125  C 5.79833984375 18.671875  4.53662109375 17.9609375  3.47900390625 17.0703125  C 2.42138671875 16.1796875  1.5771484375 15.1171875  0.9462890625 13.8828125  C 0.3154296875 12.6484375  0 11.3541666666667  0 10  C 0 8.64583333333333  0.3154296875 7.3515625  0.9462890625 6.1171875  C 1.5771484375 4.8828125  2.42138671875 3.8203125  3.47900390625 2.9296875  C 4.53662109375 2.0390625  5.79833984375 1.328125  7.26416015625 0.796874999999999  C 8.72998046875 0.265625  10.2669270833333 0  11.875 0  L 26.125 0  C 27.7330729166667 0  29.27001953125 0.265625  30.73583984375 0.796874999999999  C 32.20166015625 1.328125  33.46337890625 2.0390625  34.52099609375 2.9296875  C 35.57861328125 3.8203125  36.4228515625 4.8828125  37.0537109375 6.1171875  Z " fill-rule="nonzero" fill="#000000" stroke="none" transform="matrix(1 0 0 1 391 514 )" />
  </g>
</svg>