<?xml version="1.0" encoding="utf-8"?>
<svg version="1.1" xmlns:xlink="http://www.w3.org/1999/xlink" width="12px" height="12px" viewBox="387 677  12 12" xmlns="http://www.w3.org/2000/svg">
  <path d="M 393 677  C 396.36 677  399 679.64  399 683  C 399 686.36  396.36 689  393 689  C 389.64 689  387 686.36  387 683  C 387 679.64  389.64 677  393 677  Z " fill-rule="nonzero" fill="#f0f0f0" stroke="none" />
  <path d="M 393 677.5  C 396.08 677.5  398.5 679.92  398.5 683  C 398.5 686.08  396.08 688.5  393 688.5  C 389.92 688.5  387.5 686.08  387.5 683  C 387.5 679.92  389.92 677.5  393 677.5  Z " stroke-width="1" stroke="#797979" fill="none" />
  <path d="M 393 686  C 391.32 686  390 684.68  390 683  C 390 681.32  391.32 680  393 680  C 394.68 680  396 681.32  396 683  C 396 684.68  394.68 686  393 686  " fill-rule="nonzero" fill="#797979" stroke="none" />
</svg>