<?xml version="1.0" encoding="utf-8"?>
<svg version="1.1" xmlns:xlink="http://www.w3.org/1999/xlink" width="12px" height="12px" viewBox="387 482  12 12" xmlns="http://www.w3.org/2000/svg">
  <path d="M 393 482  C 396.36 482  399 484.64  399 488  C 399 491.36  396.36 494  393 494  C 389.64 494  387 491.36  387 488  C 387 484.64  389.64 482  393 482  Z " fill-rule="nonzero" fill="#ffffff" stroke="none" />
  <path d="M 393 482.5  C 396.08 482.5  398.5 484.92  398.5 488  C 398.5 491.08  396.08 493.5  393 493.5  C 389.92 493.5  387.5 491.08  387.5 488  C 387.5 484.92  389.92 482.5  393 482.5  Z " stroke-width="1" stroke="#797979" fill="none" />
  <path d="M 393 491  C 391.32 491  390 489.68  390 488  C 390 486.32  391.32 485  393 485  C 394.68 485  396 486.32  396 488  C 396 489.68  394.68 491  393 491  " fill-rule="nonzero" fill="#797979" stroke="none" />
</svg>