<?xml version="1.0" encoding="utf-8"?>
<svg version="1.1" xmlns:xlink="http://www.w3.org/1999/xlink" width="12px" height="12px" viewBox="1857 617  12 12" xmlns="http://www.w3.org/2000/svg">
  <path d="M 1863 617  C 1866.36 617  1869 619.64  1869 623  C 1869 626.36  1866.36 629  1863 629  C 1859.64 629  1857 626.36  1857 623  C 1857 619.64  1859.64 617  1863 617  Z " fill-rule="nonzero" fill="#f0f0f0" stroke="none" />
  <path d="M 1863 617.5  C 1866.08 617.5  1868.5 619.92  1868.5 623  C 1868.5 626.08  1866.08 628.5  1863 628.5  C 1859.92 628.5  1857.5 626.08  1857.5 623  C 1857.5 619.92  1859.92 617.5  1863 617.5  Z " stroke-width="1" stroke="#797979" fill="none" />
  <path d="M 1863 626  C 1861.32 626  1860 624.68  1860 623  C 1860 621.32  1861.32 620  1863 620  C 1864.68 620  1866 621.32  1866 623  C 1866 624.68  1864.68 626  1863 626  " fill-rule="nonzero" fill="#797979" stroke="none" />
</svg>