<?xml version="1.0" encoding="utf-8"?>
<svg version="1.1" xmlns:xlink="http://www.w3.org/1999/xlink" width="12px" height="12px" viewBox="1857 645  12 12" xmlns="http://www.w3.org/2000/svg">
  <path d="M 1863 645  C 1866.36 645  1869 647.64  1869 651  C 1869 654.36  1866.36 657  1863 657  C 1859.64 657  1857 654.36  1857 651  C 1857 647.64  1859.64 645  1863 645  Z " fill-rule="nonzero" fill="#ffffff" stroke="none" />
  <path d="M 1863 645.5  C 1866.08 645.5  1868.5 647.92  1868.5 651  C 1868.5 654.08  1866.08 656.5  1863 656.5  C 1859.92 656.5  1857.5 654.08  1857.5 651  C 1857.5 647.92  1859.92 645.5  1863 645.5  Z " stroke-width="1" stroke="#797979" fill="none" />
  <path d="M 1863 654  C 1861.32 654  1860 652.68  1860 651  C 1860 649.32  1861.32 648  1863 648  C 1864.68 648  1866 649.32  1866 651  C 1866 652.68  1864.68 654  1863 654  " fill-rule="nonzero" fill="#797979" stroke="none" />
</svg>