<?xml version="1.0" encoding="utf-8"?>
<svg version="1.1" xmlns:xlink="http://www.w3.org/1999/xlink" width="12px" height="12px" viewBox="1857 668  12 12" xmlns="http://www.w3.org/2000/svg">
  <path d="M 1863 668  C 1866.36 668  1869 670.64  1869 674  C 1869 677.36  1866.36 680  1863 680  C 1859.64 680  1857 677.36  1857 674  C 1857 670.64  1859.64 668  1863 668  Z " fill-rule="nonzero" fill="#f0f0f0" stroke="none" />
  <path d="M 1863 668.5  C 1866.08 668.5  1868.5 670.92  1868.5 674  C 1868.5 677.08  1866.08 679.5  1863 679.5  C 1859.92 679.5  1857.5 677.08  1857.5 674  C 1857.5 670.92  1859.92 668.5  1863 668.5  Z " stroke-width="1" stroke="#797979" fill="none" />
  <path d="M 1863 677  C 1861.32 677  1860 675.68  1860 674  C 1860 672.32  1861.32 671  1863 671  C 1864.68 671  1866 672.32  1866 674  C 1866 675.68  1864.68 677  1863 677  " fill-rule="nonzero" fill="#797979" stroke="none" />
</svg>